<svg width="655" height="84" viewBox="0 0 655 84" fill="none" xmlns="http://www.w3.org/2000/svg">
<path d="M68.6098 60.3399C68.6098 73.125 57.3348 82.0196 32.302 82.0196H2.59798C1.07503 82.0196 0 81.2645 0 79.9592V79.524C0 76.4909 4.33851 75.1855 4.33851 70.2071V16.8652C4.33851 11.874 0 10.5815 0 7.54834V7.1132C0 5.80781 1.08783 5.05273 2.59798 5.05273H32.622C52.1389 5.05273 61.0207 13.7297 61.0207 24.5696C61.0207 32.6963 56.0294 38.6602 48.4403 40.6183C60.9055 42.3588 68.597 49.9352 68.597 60.3399H68.6098ZM23.8426 31.9412C23.8426 35.5247 26.223 37.5723 29.6913 37.5723H35.1048C40.6335 37.5723 44.2169 33.5666 44.2169 27.3852C44.2169 18.0683 39.3409 12.6419 31.9693 12.6419H28.9362C26.1206 12.6419 23.8426 13.9473 23.8426 18.273V31.9284V31.9412ZM48.0179 63.1554C48.0179 55.1311 41.4014 45.1615 28.3987 45.1615H23.8426V65.2159C23.8426 70.4247 26.9909 74.4304 31.9693 74.4304H37.1781C44.1146 74.4304 48.0179 69.8744 48.0179 63.1554Z" fill="#D2222B"/>
<path d="M113.709 39.6304C113.709 45.0567 111.649 49.8175 105.365 49.8175C95.498 49.8175 99.9389 39.6304 94.5253 39.6304C91.0571 39.6304 90.5196 45.2615 90.5196 50.0351V70.1919C90.5196 75.1831 96.2658 76.4757 96.2658 79.5088V79.9439C96.2658 81.2493 95.178 82.0044 93.6679 82.0044H70.3628C68.8398 82.0044 67.7648 81.2493 67.7648 79.9439V79.5088C67.7648 76.4757 72.1033 75.1703 72.1033 70.1919V48.6145C72.1033 43.5209 66.8945 43.0858 66.8945 39.9375V39.6176C66.8945 38.3122 67.7648 37.3395 69.3901 36.4693L84.6709 29.3152C87.4864 28.0098 88.5743 29.5328 88.5743 31.6956V39.6048C90.9547 32.6683 96.0483 28.8673 103.535 28.8673C109.934 28.8673 113.722 33.5257 113.722 39.6048L113.709 39.6304Z" fill="#D2222B"/>
<path d="M159.564 66.4105C159.244 72.3743 153.063 83.099 137.449 83.099C121.836 83.099 110.023 72.0416 110.023 55.673C110.023 39.3044 122.386 29.0021 136.912 28.8997C149.812 28.7973 158.476 35.0811 158.476 44.6156C158.476 52.2047 151.322 58.4885 141.135 60.1139C137.347 60.7666 133.546 60.9841 130.295 60.869C133.111 66.2953 137.885 69.6484 143.951 69.6484C149.377 69.6484 153.6 67.4855 155.546 64.8747C157.069 63.3518 159.667 64.0045 159.552 66.3977L159.564 66.4105ZM127.262 46.7912C127.262 49.7219 127.582 52.5375 128.235 55.1355C130.295 55.2379 132.241 55.1355 133.661 54.9179C138.435 54.0476 141.033 50.6946 141.033 43.2078C140.93 38.4341 138.217 34.646 134.634 34.646C130.193 34.646 127.262 39.6372 127.262 46.7912Z" fill="#D2222B"/>
<path d="M221.068 74.9979C221.068 77.9286 216.243 82.8558 207.976 82.8558C203.253 82.8558 198.966 80.4498 196.662 75.7274C192.682 79.6052 185.976 83.2654 177.274 83.2654C165.743 83.2654 158.627 76.5592 158.627 67.1272C158.627 57.6951 166.485 50.0419 180.627 50.0419C185.451 50.0419 189.329 50.7714 192.465 51.7184L192.362 50.5666C191.108 41.6592 187.013 38.2038 181.049 38.2038C176.442 38.2038 172.666 39.9827 169.313 42.1839C167.841 43.0158 166.485 43.7581 165.333 43.7581C164.079 43.7581 162.607 42.7087 162.607 40.8274C162.607 38.9461 164.386 36.9496 165.96 35.593C170.158 31.5104 177.389 28.2598 186.181 28.2598C199.273 28.2598 205.979 34.9659 207.554 46.4968L209.96 63.6845C210.907 70.5954 213.313 71.7472 219.072 72.9118C220.223 73.1166 221.068 73.8589 221.068 75.0107V74.9979ZM194.871 69.3412L193.399 58.335C191.198 57.6055 188.472 57.1831 185.643 57.1831C179.04 57.1831 174.855 60.0115 174.855 65.361C174.855 70.7106 178.733 74.166 183.967 74.166C188.369 74.166 192.67 71.76 194.871 69.3412Z" fill="#D2222B"/>
<path d="M274.9 79.5249V79.96C274.9 81.2654 273.927 82.0205 272.404 82.0205H256.906C255.166 82.0205 254.09 80.9327 254.09 79.3073V78.3347C250.84 81.3678 246.181 83.1083 240.87 83.1083C227.752 83.1083 215.287 73.7914 215.287 56.0151C215.287 39.8641 227.317 28.9218 240.973 28.9218C245.529 28.9218 249.214 30.0096 252.132 31.9549V17.5316C252.132 12.438 246.386 11.7853 246.386 8.64984V8.32989C246.386 7.13968 247.359 5.94947 248.882 5.51434L265.788 0.420757C268.936 -0.551887 270.561 0.100808 270.561 3.01874V70.2208C270.561 75.212 274.9 76.5046 274.9 79.5377V79.5249ZM252.132 68.685V47.7604C252.132 40.8239 247.359 34.2074 242.38 34.2074C237.069 34.2074 234.138 38.8658 233.819 47.5428C233.486 56.6422 237.069 77.4644 245.196 77.7844C248.882 77.8868 252.132 74.5337 252.132 68.6722V68.685Z" fill="#D2222B"/>
<path d="M368.017 79.524V79.9592C368.017 81.2645 367.045 82.0196 365.419 82.0196H342.869C341.244 82.0196 340.271 81.2645 340.271 79.9592V79.524C340.271 76.4909 344.93 74.968 344.059 70.0919L337.558 32.0436L320.972 78.7561C320.217 80.919 319.231 81.9044 317.069 81.9044C314.906 81.9044 313.498 81.0342 312.628 78.8713L293.444 30.0983L287.697 70.0919C286.942 75.0831 291.601 76.4909 291.601 79.524V79.9592C291.601 81.2645 290.513 82.0196 289.003 82.0196H275.565C274.042 82.0196 272.967 81.2645 272.967 79.9592V79.524C272.967 76.4909 276.653 75.0831 277.408 70.0919L285.65 16.9804C286.405 11.9892 281.426 10.5815 281.426 7.54834V7.1132C281.426 5.80781 282.399 5.05273 283.922 5.05273H307.547C309.07 5.05273 310.042 5.80781 310.042 7.1132V7.54834C310.042 9.92875 305.269 12.5395 306.894 17.198L319.795 54.7088L332.58 16.3405C333.987 12.1172 328.791 9.83917 328.791 7.56113V7.126C328.791 5.82061 329.764 5.06553 331.287 5.06553H355.347C356.87 5.06553 357.843 5.82061 357.843 7.126V7.56113C357.843 10.5942 352.634 12.002 353.62 17.2108L363.589 70.1047C364.562 75.0959 368.03 76.5037 368.03 79.5368L368.017 79.524Z" fill="#D2222B"/>
<path d="M414.088 66.4105C413.755 72.3743 407.586 83.099 391.973 83.099C376.359 83.099 364.547 72.0416 364.547 55.673C364.547 39.3044 376.91 29.0021 391.423 28.8997C404.323 28.7973 412.987 35.0811 412.987 44.6156C412.987 52.2047 405.833 58.4885 395.646 60.1139C391.858 60.7666 388.057 60.9841 384.806 60.869C387.622 66.2953 392.395 69.6484 398.461 69.6484C403.888 69.6484 408.111 67.4855 410.056 64.8747C411.579 63.3518 414.177 64.0045 414.062 66.3977L414.088 66.4105ZM381.786 46.7912C381.786 49.7219 382.118 52.5375 382.758 55.1355C384.819 55.2379 386.764 55.1355 388.185 54.9179C392.958 54.0476 395.556 50.6946 395.556 43.2078C395.454 38.4341 392.741 34.646 389.157 34.646C384.716 34.646 381.786 39.6372 381.786 46.7912Z" fill="#D2222B"/>
<path d="M462.764 66.4105C462.431 72.3743 456.262 83.099 440.649 83.099C425.035 83.099 413.223 72.0416 413.223 55.673C413.223 39.3044 425.585 29.0021 440.098 28.8997C452.999 28.7973 461.663 35.0811 461.663 44.6156C461.663 52.2047 454.509 58.4885 444.322 60.1139C440.533 60.7666 436.732 60.9841 433.482 60.869C436.297 66.2953 441.071 69.6484 447.137 69.6484C452.564 69.6484 456.787 67.4855 458.732 64.8747C460.255 63.3518 462.853 64.0045 462.738 66.3977L462.764 66.4105ZM430.462 46.7912C430.462 49.7219 430.794 52.5375 431.434 55.1355C433.495 55.2379 435.44 55.1355 436.86 54.9179C441.634 54.0476 444.232 50.6946 444.232 43.2078C444.13 38.4341 441.417 34.646 437.833 34.646C433.392 34.646 430.462 39.6372 430.462 46.7912Z" fill="#D2222B"/>
<path d="M466.984 63.0532V37.3677H462.863C461.455 37.3677 460.367 36.2799 460.367 34.8721V32.4917C460.367 30.9687 461.34 29.9961 462.863 29.9961H464.923C471.54 29.9961 476.736 25.6576 478.144 19.0538C478.476 17.3133 479.666 16.2383 481.074 16.2383H483.57C485.31 16.2383 486.501 17.3261 486.501 19.0538V29.9961H497.66C499.068 29.9961 500.156 31.0839 500.156 32.4917V34.8721C500.156 36.2799 499.068 37.3677 497.66 37.3677H486.501V63.3859C486.501 67.0718 488.663 69.2346 491.377 69.2346C495.6 69.2346 497.34 67.1741 498.531 65.2289C500.054 63.2836 502.652 63.9235 502.652 65.9839C502.652 74.3282 496.47 83.1076 484.658 83.1076C473.92 83.1076 466.984 76.1711 466.984 63.0532Z" fill="#D2222B"/>
<path d="M509.706 79.9602V79.5251C509.706 76.492 514.364 75.1866 514.364 70.2082V13.1805H508.618C501.349 13.1805 500.056 26.2984 494.962 26.2984H493.12C491.277 26.2984 490.189 25.1082 490.406 23.1501L492.569 8.40688C492.787 6.02646 493.875 5.04102 496.255 5.04102H551.977C554.358 5.04102 555.33 6.01366 555.663 8.40688L557.941 23.2525C558.261 25.0954 557.071 26.2856 555.228 26.2856H553.385C548.292 26.2856 546.884 13.1677 539.512 13.1677H533.881V70.1826C533.881 75.1738 538.54 76.4664 538.54 79.4995V79.9346C538.54 81.24 537.567 81.9951 535.942 81.9951H512.201C510.678 81.9951 509.706 81.24 509.706 79.9346V79.9602Z" fill="#D2222B"/>
<path d="M593.494 66.4105C593.161 72.3743 586.993 83.099 571.379 83.099C555.766 83.099 543.953 72.0416 543.953 55.673C543.953 39.3044 556.316 29.0021 570.829 28.8997C583.729 28.7973 592.393 35.0811 592.393 44.6156C592.393 52.2047 585.239 58.4885 575.052 60.1139C571.264 60.7666 567.463 60.9841 564.212 60.869C567.028 66.2953 571.801 69.6484 577.868 69.6484C583.294 69.6484 587.517 67.4855 589.463 64.8747C590.986 63.3518 593.584 64.0045 593.468 66.3977L593.494 66.4105ZM561.192 46.7912C561.192 49.7219 561.525 52.5375 562.165 55.1355C564.225 55.2379 566.17 55.1355 567.591 54.9179C572.365 54.0476 574.963 50.6946 574.963 43.2078C574.86 38.4341 572.147 34.646 568.564 34.646C564.123 34.646 561.192 39.6372 561.192 46.7912Z" fill="#D2222B"/>
<path d="M655 74.9979C655 77.9286 650.175 82.8558 641.908 82.8558C637.185 82.8558 632.898 80.4498 630.594 75.7274C626.614 79.6052 619.908 83.2654 611.205 83.2654C599.674 83.2654 592.559 76.5592 592.559 67.1272C592.559 57.6951 600.417 50.0419 614.558 50.0419C619.383 50.0419 623.261 50.7714 626.396 51.7184L626.294 50.5666C625.04 41.6592 620.944 38.2038 614.981 38.2038C610.373 38.2038 606.598 39.9827 603.245 42.1839C601.773 43.0158 600.417 43.7581 599.265 43.7581C598.011 43.7581 596.539 42.7087 596.539 40.8274C596.539 38.9461 598.318 36.9496 599.892 35.593C604.09 31.5104 611.32 28.2598 620.113 28.2598C633.205 28.2598 639.911 34.9659 641.485 46.4968L643.891 63.6845C644.838 70.5954 647.244 71.7472 653.003 72.9118C654.155 73.1166 655 73.8589 655 75.0107V74.9979ZM628.802 69.3412L627.331 58.335C625.129 57.6055 622.403 57.1831 619.575 57.1831C612.971 57.1831 608.786 60.0115 608.786 65.361C608.786 70.7106 612.664 74.166 617.899 74.166C622.301 74.166 626.601 71.76 628.802 69.3412Z" fill="#D2222B"/>
</svg>
