<svg width="673" height="126" viewBox="0 0 673 126" fill="none" xmlns="http://www.w3.org/2000/svg">
<path d="M44.0232 125.974C33.864 125.974 25.5109 123.716 18.9638 119.201C12.4168 114.686 7.56296 108.816 4.40232 101.592C1.46744 94.3676 0 86.8047 0 78.9031C0 66.712 2.822 55.3112 8.466 44.7005C14.11 33.864 20.9957 24.6078 29.123 16.932C33.8333 12.4763 38.5077 8.73848 43.1463 5.71853C49.4987 1.58272 57.6233 2.56319 63.8969 6.81768L77.6839 16.1674C80.1786 17.8593 79.9086 21.635 77.2534 23.062C73.2379 25.2201 69.2726 27.5791 65.3575 30.139C59.4877 33.9769 54.1824 38.1534 49.4414 42.6686C44.7005 47.1838 40.9754 51.8119 38.2663 56.5528L39.9595 57.9074C41.7656 56.7786 43.5717 55.9884 45.3777 55.5369C47.4096 55.0854 50.0058 54.8596 53.1665 54.8596C58.1332 54.8596 63.0999 56.1013 68.0666 58.5847C73.0333 60.8423 77.2099 64.3416 80.5963 69.0825C83.9827 73.8235 85.6759 79.8061 85.6759 87.0304C85.6759 96.0608 83.644 103.511 79.5804 109.381C75.7424 115.025 70.6628 119.201 64.3416 121.91C58.0203 124.619 51.2475 125.974 44.0232 125.974ZM139.858 125.974C129.699 125.974 121.346 123.716 114.799 119.201C108.252 114.686 103.398 108.816 100.237 101.592C97.3025 94.3676 95.8351 86.8047 95.8351 78.9031C95.8351 66.712 98.6571 55.3112 104.301 44.7005C109.945 33.864 116.831 24.6078 124.958 16.932C129.668 12.4763 134.343 8.73848 138.981 5.71853C145.334 1.58272 153.458 2.56319 159.732 6.81768L173.519 16.1674C176.014 17.8593 175.744 21.635 173.088 23.062C169.073 25.2201 165.108 27.5791 161.193 30.139C155.323 33.9769 150.017 38.1534 145.276 42.6686C140.536 47.1838 136.81 51.8119 134.101 56.5528L135.795 57.9074C137.601 56.7786 139.407 55.9884 141.213 55.5369C143.245 55.0854 145.841 54.8596 149.002 54.8596C153.968 54.8596 158.935 56.1013 163.902 58.5847C168.868 60.8423 173.045 64.3416 176.431 69.0825C179.818 73.8235 181.511 79.8061 181.511 87.0304C181.511 96.0608 179.479 103.511 175.415 109.381C171.578 115.025 166.498 119.201 160.177 121.91C153.855 124.619 147.083 125.974 139.858 125.974Z" fill="black"/>
<path d="M263.857 67.8129C263.857 63.8861 264.628 60.4034 266.171 57.3647C267.76 54.3261 269.911 51.9887 272.622 50.3525C275.334 48.7164 278.349 47.8983 281.668 47.8983C284.192 47.8983 286.6 48.4592 288.891 49.5812C291.181 50.6564 293.004 52.1056 294.36 53.9288V35.4867H304.317V87.377H294.36V81.6269C293.145 83.5436 291.438 85.0863 289.241 86.255C287.044 87.4237 284.496 88.0081 281.598 88.0081C278.326 88.0081 275.334 87.1666 272.622 85.4837C269.911 83.8007 267.76 81.44 266.171 78.4013C264.628 75.316 263.857 71.7865 263.857 67.8129ZM294.43 67.9532C294.43 65.569 293.963 63.5355 293.028 61.8525C292.093 60.1229 290.831 58.8139 289.241 57.9257C287.652 56.9907 285.945 56.5233 284.122 56.5233C282.299 56.5233 280.616 56.9674 279.073 57.8556C277.531 58.7438 276.269 60.0527 275.287 61.7824C274.352 63.4653 273.884 65.4755 273.884 67.8129C273.884 70.1503 274.352 72.2072 275.287 73.9836C276.269 75.7133 277.531 77.0456 279.073 77.9806C280.663 78.9156 282.346 79.383 284.122 79.383C285.945 79.383 287.652 78.9389 289.241 78.0507C290.831 77.1158 292.093 75.8068 293.028 74.1239C293.963 72.3942 294.43 70.3373 294.43 67.9532ZM323.723 54.1391C324.985 52.3627 326.714 50.8901 328.912 49.7214C331.156 48.506 333.703 47.8983 336.555 47.8983C339.874 47.8983 342.866 48.7164 345.531 50.3525C348.242 51.9887 350.369 54.3261 351.912 57.3647C353.501 60.3566 354.296 63.8393 354.296 67.8129C354.296 71.7865 353.501 75.316 351.912 78.4013C350.369 81.44 348.242 83.8007 345.531 85.4837C342.866 87.1666 339.874 88.0081 336.555 88.0081C333.703 88.0081 331.179 87.4237 328.982 86.255C326.831 85.0863 325.078 83.6137 323.723 81.8373V105.889H313.905V48.5294H323.723V54.1391ZM344.268 67.8129C344.268 65.4755 343.777 63.4653 342.796 61.7824C341.861 60.0527 340.599 58.7438 339.009 57.8556C337.466 56.9674 335.784 56.5233 333.96 56.5233C332.184 56.5233 330.501 56.9907 328.912 57.9257C327.369 58.8139 326.107 60.1229 325.125 61.8525C324.19 63.5822 323.723 65.6158 323.723 67.9532C323.723 70.2906 324.19 72.3241 325.125 74.0538C326.107 75.7834 327.369 77.1158 328.912 78.0507C330.501 78.9389 332.184 79.383 333.96 79.383C335.784 79.383 337.466 78.9156 339.009 77.9806C340.599 77.0456 341.861 75.7133 342.796 73.9836C343.777 72.254 344.268 70.1971 344.268 67.8129ZM378.68 88.0081C374.94 88.0081 371.574 87.19 368.582 85.5538C365.59 83.8709 363.229 81.5101 361.5 78.4715C359.817 75.4328 358.975 71.9267 358.975 67.9532C358.975 63.9796 359.84 60.4735 361.57 57.4349C363.346 54.3962 365.754 52.0588 368.792 50.4227C371.831 48.7397 375.22 47.8983 378.96 47.8983C382.7 47.8983 386.089 48.7397 389.128 50.4227C392.166 52.0588 394.551 54.3962 396.28 57.4349C398.057 60.4735 398.945 63.9796 398.945 67.9532C398.945 71.9267 398.033 75.4328 396.21 78.4715C394.434 81.5101 392.003 83.8709 388.917 85.5538C385.879 87.19 382.466 88.0081 378.68 88.0081ZM378.68 79.4532C380.456 79.4532 382.116 79.0324 383.658 78.191C385.248 77.3028 386.51 75.9938 387.445 74.2641C388.38 72.5345 388.847 70.4308 388.847 67.9532C388.847 64.2601 387.866 61.4318 385.902 59.4684C383.985 57.4582 381.625 56.4531 378.82 56.4531C376.015 56.4531 373.654 57.4582 371.738 59.4684C369.868 61.4318 368.933 64.2601 368.933 67.9532C368.933 71.6462 369.844 74.4979 371.667 76.508C373.537 78.4715 375.875 79.4532 378.68 79.4532ZM415.963 54.1391C417.225 52.3627 418.955 50.8901 421.152 49.7214C423.396 48.506 425.944 47.8983 428.795 47.8983C432.115 47.8983 435.106 48.7164 437.771 50.3525C440.482 51.9887 442.61 54.3261 444.152 57.3647C445.742 60.3566 446.536 63.8393 446.536 67.8129C446.536 71.7865 445.742 75.316 444.152 78.4013C442.61 81.44 440.482 83.8007 437.771 85.4837C435.106 87.1666 432.115 88.0081 428.795 88.0081C425.944 88.0081 423.419 87.4237 421.222 86.255C419.072 85.0863 417.319 83.6137 415.963 81.8373V105.889H406.146V48.5294H415.963V54.1391ZM436.509 67.8129C436.509 65.4755 436.018 63.4653 435.036 61.7824C434.101 60.0527 432.839 58.7438 431.25 57.8556C429.707 56.9674 428.024 56.5233 426.201 56.5233C424.425 56.5233 422.742 56.9907 421.152 57.9257C419.609 58.8139 418.347 60.1229 417.366 61.8525C416.431 63.5822 415.963 65.6158 415.963 67.9532C415.963 70.2906 416.431 72.3241 417.366 74.0538C418.347 75.7834 419.609 77.1158 421.152 78.0507C422.742 78.9389 424.425 79.383 426.201 79.383C428.024 79.383 429.707 78.9156 431.25 77.9806C432.839 77.0456 434.101 75.7133 435.036 73.9836C436.018 72.254 436.509 70.1971 436.509 67.8129ZM468.536 88.0081C465.357 88.0081 462.506 87.4471 459.981 86.3251C457.457 85.1564 455.447 83.5904 453.951 81.6269C452.501 79.6635 451.707 77.4897 451.566 75.1056H461.454C461.641 76.6015 462.365 77.8404 463.627 78.8221C464.936 79.8038 466.549 80.2946 468.466 80.2946C470.336 80.2946 471.785 79.9206 472.813 79.1727C473.889 78.4247 474.426 77.4664 474.426 76.2977C474.426 75.0355 473.772 74.1005 472.463 73.4928C471.201 72.8383 469.167 72.1371 466.362 71.3891C463.464 70.6879 461.08 69.9633 459.21 69.2154C457.387 68.4674 455.797 67.3221 454.442 65.7794C453.133 64.2367 452.478 62.1564 452.478 59.5385C452.478 57.3881 453.086 55.4247 454.301 53.6483C455.563 51.8718 457.34 50.4694 459.631 49.4409C461.968 48.4125 464.703 47.8983 467.835 47.8983C472.463 47.8983 476.156 49.067 478.914 51.4044C481.672 53.695 483.192 56.8038 483.472 60.7306H474.076C473.935 59.1879 473.281 57.9725 472.112 57.0842C470.99 56.1493 469.471 55.6818 467.554 55.6818C465.778 55.6818 464.399 56.009 463.417 56.6635C462.482 57.318 462.015 58.2296 462.015 59.3983C462.015 60.7072 462.669 61.7123 463.978 62.4135C465.287 63.068 467.321 63.7458 470.079 64.4471C472.884 65.1483 475.198 65.8729 477.021 66.6208C478.844 67.3688 480.41 68.5375 481.719 70.1269C483.075 71.6696 483.776 73.7265 483.823 76.2977C483.823 78.5416 483.192 80.5517 481.929 82.3282C480.714 84.1046 478.937 85.507 476.6 86.5355C474.309 87.5172 471.621 88.0081 468.536 88.0081ZM503.311 56.5934V75.3861C503.311 76.695 503.615 77.6534 504.223 78.2611C504.877 78.8221 505.952 79.1026 507.448 79.1026H512.006V87.377H505.835C497.561 87.377 493.424 83.3566 493.424 75.316V56.5934H488.796V48.5294H493.424V38.9226H503.311V48.5294H512.006V56.5934H503.311ZM555.741 48.5294V87.377H545.854V82.4684C544.592 84.1513 542.932 85.4837 540.875 86.4654C538.865 87.4003 536.668 87.8678 534.284 87.8678C531.245 87.8678 528.557 87.2367 526.22 85.9745C523.882 84.6656 522.036 82.7723 520.68 80.2946C519.371 77.7702 518.717 74.7784 518.717 71.319V48.5294H528.534V69.9166C528.534 73.0019 529.305 75.3861 530.848 77.069C532.39 78.7052 534.494 79.5233 537.159 79.5233C539.87 79.5233 541.997 78.7052 543.54 77.069C545.082 75.3861 545.854 73.0019 545.854 69.9166V48.5294H555.741ZM562.903 67.8129C562.903 63.8861 563.674 60.4034 565.217 57.3647C566.806 54.3261 568.957 51.9887 571.668 50.3525C574.379 48.7164 577.395 47.8983 580.714 47.8983C583.238 47.8983 585.646 48.4592 587.936 49.5812C590.227 50.6564 592.05 52.1056 593.406 53.9288V35.4867H603.363V87.377H593.406V81.6269C592.19 83.5436 590.484 85.0863 588.287 86.255C586.09 87.4237 583.542 88.0081 580.644 88.0081C577.371 88.0081 574.379 87.1666 571.668 85.4837C568.957 83.8007 566.806 81.44 565.217 78.4013C563.674 75.316 562.903 71.7865 562.903 67.8129ZM593.476 67.9532C593.476 65.569 593.008 63.5355 592.073 61.8525C591.139 60.1229 589.876 58.8139 588.287 57.9257C586.697 56.9907 584.991 56.5233 583.168 56.5233C581.345 56.5233 579.662 56.9674 578.119 57.8556C576.577 58.7438 575.314 60.0527 574.333 61.7824C573.398 63.4653 572.93 65.4755 572.93 67.8129C572.93 70.1503 573.398 72.2072 574.333 73.9836C575.314 75.7133 576.577 77.0456 578.119 77.9806C579.709 78.9156 581.392 79.383 583.168 79.383C584.991 79.383 586.697 78.9389 588.287 78.0507C589.876 77.1158 591.139 75.8068 592.073 74.1239C593.008 72.3942 593.476 70.3373 593.476 67.9532ZM617.93 43.9013C616.2 43.9013 614.751 43.3637 613.582 42.2885C612.46 41.1665 611.899 39.7875 611.899 38.1513C611.899 36.5151 612.46 35.1594 613.582 34.0842C614.751 32.9623 616.2 32.4013 617.93 32.4013C619.66 32.4013 621.085 32.9623 622.207 34.0842C623.376 35.1594 623.96 36.5151 623.96 38.1513C623.96 39.7875 623.376 41.1665 622.207 42.2885C621.085 43.3637 619.66 43.9013 617.93 43.9013ZM622.768 48.5294V87.377H612.951V48.5294H622.768ZM649.718 88.0081C645.978 88.0081 642.612 87.19 639.62 85.5538C636.628 83.8709 634.267 81.5101 632.538 78.4715C630.855 75.4328 630.013 71.9267 630.013 67.9532C630.013 63.9796 630.878 60.4735 632.608 57.4349C634.384 54.3962 636.792 52.0588 639.83 50.4227C642.869 48.7397 646.258 47.8983 649.998 47.8983C653.738 47.8983 657.127 48.7397 660.166 50.4227C663.204 52.0588 665.589 54.3962 667.318 57.4349C669.095 60.4735 669.983 63.9796 669.983 67.9532C669.983 71.9267 669.071 75.4328 667.248 78.4715C665.472 81.5101 663.041 83.8709 659.955 85.5538C656.917 87.19 653.504 88.0081 649.718 88.0081ZM649.718 79.4532C651.494 79.4532 653.154 79.0324 654.696 78.191C656.286 77.3028 657.548 75.9938 658.483 74.2641C659.418 72.5345 659.885 70.4308 659.885 67.9532C659.885 64.2601 658.904 61.4318 656.94 59.4684C655.024 57.4582 652.663 56.4531 649.858 56.4531C647.053 56.4531 644.692 57.4582 642.776 59.4684C640.906 61.4318 639.971 64.2601 639.971 67.9532C639.971 71.6462 640.882 74.4979 642.705 76.508C644.575 78.4715 646.913 79.4532 649.718 79.4532Z" fill="black"/>
</svg>
