<svg width="417" height="417" viewBox="0 0 417 417" fill="none" xmlns="http://www.w3.org/2000/svg">
<path fill-rule="evenodd" clip-rule="evenodd" d="M285.938 416.667V255.313H340.104L348.208 192.438H285.917V152.292C285.917 134.083 290.979 121.667 317.104 121.667H350.396V65.4167C334.274 63.6845 318.069 62.8498 301.854 62.9167C253.854 62.9167 221 92.2292 221 146.042V192.438H166.667V255.313H220.979V416.667H23C10.2917 416.667 0 406.375 0 393.667V23C0 10.2917 10.2917 0 23 0H393.667C406.375 0 416.667 10.2917 416.667 23V393.667C416.667 406.375 406.375 416.667 393.667 416.667H285.938Z" fill="black"/>
</svg>
