<svg width="417" height="417" viewBox="0 0 417 417" fill="none" xmlns="http://www.w3.org/2000/svg">
<path d="M229.762 0C253.199 0.0625 265.095 0.1875 275.366 0.479167L279.408 0.624999C284.074 0.791666 288.679 0.999999 294.241 1.25C316.408 2.29167 331.533 5.79167 344.804 10.9375C358.554 16.2292 370.137 23.3958 381.72 34.9583C392.318 45.3694 400.516 57.9682 405.741 71.875C410.887 85.1458 414.387 100.271 415.429 122.458C415.679 128 415.887 132.604 416.054 137.292L416.179 141.333C416.491 151.583 416.616 163.479 416.658 186.917L416.679 202.458V229.75C416.729 244.946 416.569 260.142 416.199 275.333L416.074 279.375C415.908 284.063 415.699 288.667 415.449 294.208C414.408 316.396 410.866 331.5 405.741 344.792C400.516 358.698 392.318 371.297 381.72 381.708C371.309 392.306 358.71 400.504 344.804 405.729C331.533 410.875 316.408 414.375 294.241 415.417L279.408 416.042L275.366 416.167C265.095 416.458 253.199 416.604 229.762 416.646L214.22 416.667H186.949C171.746 416.72 156.544 416.561 141.345 416.187L137.304 416.063C132.358 415.875 127.413 415.66 122.47 415.417C100.304 414.375 85.1785 410.875 71.8868 405.729C57.9875 400.501 45.3961 392.304 34.991 381.708C24.3857 371.299 16.1808 358.7 10.9494 344.792C5.80352 331.521 2.30352 316.396 1.26185 294.208L0.636849 279.375L0.532685 275.333C0.148644 260.142 -0.0249853 244.946 0.0118499 229.75V186.917C-0.0458145 171.721 0.106979 156.525 0.470185 141.333L0.616018 137.292C0.782684 132.604 0.991017 128 1.24102 122.458C2.28268 100.271 5.78268 85.1667 10.9285 71.875C16.1721 57.9625 24.3915 45.3633 35.0119 34.9583C45.4109 24.3656 57.9949 16.1682 71.8868 10.9375C85.1785 5.79167 100.283 2.29167 122.47 1.25C128.012 0.999999 132.637 0.791666 137.304 0.624999L141.345 0.499999C156.537 0.129848 171.733 -0.0298895 186.929 0.0208318L229.762 0ZM208.345 104.167C180.718 104.167 154.223 115.141 134.688 134.676C115.153 154.211 104.179 180.707 104.179 208.333C104.179 235.96 115.153 262.455 134.688 281.99C154.223 301.525 180.718 312.5 208.345 312.5C235.972 312.5 262.467 301.525 282.002 281.99C301.537 262.455 312.512 235.96 312.512 208.333C312.512 180.707 301.537 154.211 282.002 134.676C262.467 115.141 235.972 104.167 208.345 104.167ZM208.345 145.833C216.553 145.832 224.68 147.447 232.264 150.587C239.847 153.727 246.738 158.329 252.542 164.132C258.347 169.934 262.952 176.824 266.094 184.406C269.236 191.988 270.854 200.115 270.856 208.323C270.857 216.531 269.242 224.658 266.102 232.241C262.962 239.825 258.36 246.716 252.557 252.52C246.754 258.325 239.865 262.93 232.283 266.072C224.701 269.214 216.574 270.832 208.366 270.833C191.79 270.833 175.893 264.249 164.172 252.528C152.451 240.806 145.866 224.909 145.866 208.333C145.866 191.757 152.451 175.86 164.172 164.139C175.893 152.418 191.79 145.833 208.366 145.833M317.741 72.9167C310.834 72.9167 304.211 75.6603 299.327 80.5441C294.443 85.4279 291.699 92.0517 291.699 98.9583C291.699 105.865 294.443 112.489 299.327 117.373C304.211 122.256 310.834 125 317.741 125C324.648 125 331.272 122.256 336.155 117.373C341.039 112.489 343.783 105.865 343.783 98.9583C343.783 92.0517 341.039 85.4279 336.155 80.5441C331.272 75.6603 324.648 72.9167 317.741 72.9167Z" fill="black"/>
</svg>
