<svg width="863" height="290" viewBox="0 0 863 290" fill="none" xmlns="http://www.w3.org/2000/svg">
<path fill-rule="evenodd" clip-rule="evenodd" d="M77.1064 0.471388C72.8499 1.48208 65.4299 9.04994 64.5909 13.2377C63.817 17.097 63.0017 17.0191 61.0321 12.8985C58.5456 7.69611 53.6082 2.66336 49.742 1.39038C41.6995 -1.25812 33.143 2.83196 30.1011 10.7804C27.8686 16.6119 28.7254 21.7955 33.2557 29.8781C36.2699 35.2569 49.998 50.9379 59.5526 59.9168C61.1685 61.4353 62.2259 62.942 61.9018 63.2655C61.5776 63.5889 59.3026 62.0053 56.8468 59.7463C51.1998 54.5528 39.3296 46.7995 29.9222 42.1612C16.878 35.7283 7.4202 36.806 2.43634 45.2919C-1.39718 51.8185 -0.647082 60.0736 4.26563 65.4209C5.45156 66.7136 8.64665 68.8168 11.3644 70.0957C14.0822 71.3736 15.5942 72.4248 14.7245 72.4297C11.4395 72.4504 5.19065 78.13 3.44931 82.6786C-1.23906 94.9262 8.14559 106.43 21.3519 104.624C28.1522 103.694 34.4465 99.7864 48.1658 87.9756C54.9789 82.1097 60.7257 77.4822 60.9362 77.6922C61.1467 77.9022 57.0869 84.1833 51.9133 91.6496C35.9635 114.672 32.7635 123.626 37.3086 132.518C42.2786 142.243 55.1143 143.03 60.4905 133.939L62.5353 130.482L64.0651 133.633C68.3671 142.497 82.7336 142.876 87.9952 134.265C90.5558 130.076 90.5004 122.799 87.841 114.203C85.7449 107.429 79.3497 93.8258 76.0874 89.2023C73.0604 84.913 69.0855 77.3698 69.8524 77.3698C71.657 77.3698 80.9913 88.8996 89.8679 102.093C98.969 115.619 104.346 126.547 106.208 135.3C106.584 137.063 107.461 138.504 108.161 138.504C110.455 138.504 114.639 134.463 114.639 132.246C114.639 125.701 85.6253 85.3823 74.8719 76.9852C73.1325 75.6274 71.9337 74.2914 72.2085 74.0182C72.8153 73.4118 81.5714 80.183 92.897 90.0158C107.571 102.756 113.258 105.711 120.89 104.557C130.378 103.123 136.382 96.7948 136.379 88.232C136.377 80.3082 132.197 74.809 124.051 72.0146L120.237 70.7061L124.603 68.7794C129.812 66.4799 134.939 60.969 135.891 56.6452C136.268 54.9275 136.289 51.5986 135.935 49.2459C134.715 41.1288 128.818 36.6266 119.393 36.6187C111.945 36.6118 103.783 40.6259 91.1231 50.5238C78.8902 60.0874 70.9494 65.6615 70.3752 65.0877C70.1272 64.8402 74.4064 58.6212 79.8844 51.2683C93.9752 32.355 98.8049 21.4307 96.8659 12.8541C94.8024 3.72632 86.1728 -1.68114 77.1064 0.471388ZM255.878 33.986C234.814 37.585 214.909 55.4343 193.751 89.6953C174.327 121.15 162.149 138.255 152.53 147.597L147.736 152.252L136.376 150.191C116.361 146.559 104.607 147.364 89.1821 153.422C79.5098 157.221 74.2937 160.642 73.5268 163.689C72.0167 169.695 80.1819 173.064 97.8987 173.745C112.328 174.301 120.514 172.955 134.439 167.736L143.398 164.379L149.525 166.311C170.7 172.989 193.486 175.554 205.807 172.646C216.828 170.046 226.617 164.535 241.077 152.792L248.55 146.723V153.356C248.55 160.892 250.114 163.526 255.46 164.999C263.98 167.346 276.89 161.352 290.115 148.907C293.888 145.356 296.976 142.45 296.976 142.45C296.976 142.45 296.976 145.811 296.976 149.92C296.976 157.264 297.037 157.447 300.602 160.706C302.644 162.574 305.825 164.321 307.882 164.706C316.708 166.358 329.175 160.358 338.842 149.804C344.068 144.098 345.723 143.027 343.814 146.588C343.174 147.78 342.616 151.156 342.574 154.091C342.504 158.907 342.809 159.705 345.694 162.277C348.29 164.591 349.794 165.127 353.693 165.127C362.669 165.127 370.241 161.135 381.901 150.252C385.337 147.044 388.415 144.421 388.74 144.421C389.064 144.421 388.897 145.558 388.366 146.95C385.882 153.47 388.056 161.788 392.81 163.949C401.425 167.866 412.279 163.052 429.623 147.62L436.76 141.271L436.229 147.53C435.275 158.795 440.415 164.685 451.095 164.564C459.917 164.465 466.84 160.847 476.636 151.217C480.913 147.013 484.108 144.318 483.738 145.229C483.367 146.14 482.827 149.635 482.539 152.993C482.041 158.804 482.162 159.249 485.035 162.114C487.57 164.644 488.819 165.126 492.825 165.122C495.449 165.119 499.181 164.677 501.12 164.139C505.645 162.885 515.491 156.044 522.362 149.38C525.319 146.514 527.738 144.457 527.738 144.809C527.738 145.162 525.526 149.312 522.822 154.034C520.119 158.754 518.27 162.978 518.714 163.421C519.157 163.863 523.239 164.096 527.784 163.937L536.046 163.648L543.01 151.545C546.84 144.888 552.642 135.814 555.903 131.381C562.537 122.365 578.071 106.357 583.963 102.467C590.938 97.8617 597.872 99.8081 596.426 105.965C596.106 107.321 591.652 115.348 586.526 123.804C581.4 132.26 576.086 141.578 574.717 144.511C572.106 150.107 571.459 156.954 573.228 160.251C574.991 163.54 579.913 165.389 585.64 164.914C593.867 164.234 602.326 159.439 612.879 149.473L622.118 140.751V148.255C622.118 157.403 624.388 161.44 630.57 163.287C638.237 165.579 646.212 162.437 658.094 152.446C661.03 149.976 663.254 148.387 663.035 148.917C662.816 149.445 660.705 153.449 658.345 157.812C654.08 165.694 653.984 165.787 643.628 171.983C616.341 188.308 594.095 209.177 593.974 218.565C593.962 219.484 595.019 221.474 596.323 222.986C598.415 225.413 599.373 225.735 604.476 225.734C609.06 225.733 611.799 225.003 617.694 222.207C626.77 217.905 640.832 206.429 648.456 197.103C654.589 189.602 665.047 174.11 669.313 166.207C671.508 162.142 674.19 159.579 683.149 152.985C707.113 135.347 709.565 134.206 723.416 134.247C734.152 134.278 737.828 135.329 758.994 144.423C778.549 152.825 785.673 154.572 798.46 154.105C810.894 153.652 816.535 151.481 827.964 142.752C840.143 133.451 850.685 120.46 859.815 103.5C864.524 94.7547 864.268 94.7832 857.321 103.779C852.05 110.604 843.125 117.152 836.727 118.884C834.348 119.528 828.88 119.792 823.726 119.511C813.543 118.956 803.298 115.837 779.331 105.999C756.666 96.6972 748.14 95.3206 736.12 99.0272C728.033 101.521 715.51 109.348 715.51 111.909C715.51 112.277 717.83 111.978 720.667 111.244C727.517 109.47 739.399 109.552 746.68 111.422C749.919 112.254 761.464 116.452 772.335 120.749C796.921 130.468 802.814 131.91 815.819 131.386C825.964 130.978 832.694 128.984 839.348 124.417C845.006 120.533 842.891 123.707 835.919 129.563C827.433 136.69 821.045 139.921 812.243 141.539C800.317 143.731 787.958 140.808 760.97 129.41C747.931 123.903 743.177 122.728 733.954 122.728C720.183 122.728 711.059 127.115 686.541 145.526C682.296 148.714 678.609 151.323 678.347 151.323C677.27 151.323 694.147 123.14 704.487 107.672C710.182 99.1534 712.578 94.7576 711.899 94.0802C711.256 93.4383 708.098 93.3565 703.085 93.8524C695.764 94.5772 695.187 94.805 693.901 97.486L692.528 100.347L691.29 97.4081C689.549 93.2746 685.262 91.7374 677.668 92.5233C659.784 94.376 645.123 104.074 630.987 123.4C624.062 132.867 607.937 149.367 601.667 153.401C598.363 155.528 596.091 156.296 593.761 156.074C587.088 155.434 589.289 148.962 603.595 127.165C615.516 109 617.345 102.04 611.82 95.8738C608.974 92.6978 608.814 92.6534 600.208 92.6534C592.342 92.6534 590.996 92.9374 586.566 95.5366C583.862 97.1222 577.448 102.447 572.314 107.369C567.18 112.291 563.367 115.653 563.842 114.839C564.318 114.026 567.288 109.221 570.445 104.162C573.602 99.1041 575.931 94.5555 575.621 94.0556C575.311 93.5556 571.604 93.1464 567.382 93.1464C558.391 93.1464 558.109 93.3555 551.427 104.979C538.155 128.063 533.032 134.732 519.831 146.101C511.249 153.493 505.942 156.495 502.214 156.065C495.981 155.346 498.806 148.398 519.404 113.787C525.775 103.082 529.695 95.506 529.341 94.5841C528.869 93.3575 527.27 93.1188 521.088 93.3515L513.42 93.6395L510.202 99.0193C507.797 103.039 506.984 103.836 506.984 102.175C506.984 94.448 500.436 91.1812 488.577 92.9926C470.08 95.8176 458.328 104.057 446.163 122.728C436.719 137.223 415.624 156.208 408.92 156.244C407.982 156.249 406.535 155.22 405.706 153.956C402.724 149.416 404.331 146.261 442.156 82.4124C450.634 68.102 457.57 56.233 457.57 56.0358C457.57 55.8386 453.867 55.6769 449.342 55.6769C442.075 55.6769 440.874 55.9362 439.065 57.8955C437.937 59.1162 428.057 75.6442 417.109 94.6255C397.532 128.569 397.046 129.297 387.609 138.807C375.964 150.542 367.583 156.478 363.251 156.055C360.625 155.799 360.184 155.331 359.913 152.52C359.562 148.884 360.308 147.438 378.748 115.978C385.216 104.945 390.268 95.294 389.974 94.5318C389.583 93.5152 387.501 93.1464 382.151 93.1464C374.182 93.1464 373.34 93.6256 370.096 100.005L368.364 103.414L366.74 99.0193C364.665 93.4048 361.107 91.9287 351.551 92.7175C333.053 94.2459 319.7 103.481 305.621 124.485C293.786 142.139 277.079 156.789 269.598 156.073C264.659 155.599 264.825 152.324 270.344 141.36C275.738 130.645 290.526 105.205 294.588 99.6533C296.136 97.5383 297.169 95.4301 296.884 94.9696C296.598 94.5091 292.882 94.1325 288.627 94.1325C282.679 94.1325 280.424 94.5318 278.882 95.858C277.779 96.8066 272.363 105.349 266.845 114.839C261.131 124.668 254.823 134.162 252.188 136.897C240.79 148.731 227.063 157.618 215.399 160.715C204.006 163.739 184.836 161.976 164.148 156L159.886 154.768L164.193 151.67C170.961 146.802 184.776 132.821 191.405 124.132C200.091 112.747 206.825 102.048 218.354 81.3139C229.322 61.5892 233.942 54.8249 241.445 47.5075C250.75 38.432 262.842 34.9296 266.362 40.2897C267.771 42.4353 267.771 43.2626 266.357 49.3465C263.793 60.3724 257.708 70.5828 247.562 80.8751C242.67 85.8379 235.888 91.7551 232.491 94.024C220.78 101.847 226.443 101.083 241.138 92.8575C251.548 87.031 266.343 72.2857 270.725 63.3719C274.847 54.9847 275.841 45.9673 273.246 40.5096C270.547 34.8339 264.409 32.5286 255.878 33.986ZM297.638 68.2154C294.072 68.8938 287.796 75.7448 287.036 79.7905C286.134 84.5866 287.728 86.2441 293.241 86.2441C298.962 86.2441 303.879 83.8708 306.222 79.9769C311.872 70.5868 308.617 66.1289 297.638 68.2154ZM686.391 98.7461C691.594 103.938 679.692 125.564 661.846 143.342C648.752 156.386 643.352 159.317 639.244 155.607C635.035 151.807 638.086 141.077 647.278 127.362C657.946 111.446 670.23 100.185 679.272 98.0362C684.036 96.9042 684.601 96.9604 686.391 98.7461ZM362.266 100.501C366.508 106.96 355.809 126.512 337.718 145.363C328.955 154.494 324.98 157.23 320.47 157.235C315.522 157.241 313.703 153.773 315.076 146.951C317.928 132.783 332.13 110.719 343.284 103.127C351.519 97.5225 359.578 96.4073 362.266 100.501ZM501.642 100.546C503.02 102.644 503.091 103.698 502.117 107.56C499.485 117.986 489.685 132.647 476.241 146.272C467.833 154.792 464.183 157.23 459.828 157.235C447.697 157.25 458.307 126.74 476.878 108.211C483.881 101.224 489.682 98.1299 495.843 98.0983C499.223 98.0806 500.33 98.548 501.642 100.546ZM125.356 159.161C130.436 160.388 134.216 161.732 133.756 162.15C133.298 162.568 130.031 164.027 126.498 165.395C109.697 171.898 85.2646 171.414 82.616 164.528C81.8353 162.499 84.4028 159.44 88.4498 157.577C93.0156 155.475 113.787 156.366 125.356 159.161ZM644.491 180.702C629.189 203.186 609.896 221.944 602.91 221.133C599.111 220.692 598.88 215.485 602.431 210.372C606.012 205.217 617.001 194.96 626.275 188.117C634.965 181.705 647.491 173.844 648.081 174.433C648.302 174.655 646.687 177.476 644.491 180.702ZM192.384 202.269C192.021 202.63 191.724 211.726 191.724 222.482V242.039H194.195C196.61 242.039 196.666 241.874 196.666 234.643V227.248H202.519H208.374L213.069 234.643C217.169 241.1 218.132 242.039 220.663 242.039C224.161 242.039 223.992 241.367 218.432 233.199C213.905 226.549 213.689 225.652 216.406 224.791C222.466 222.872 224.529 212.222 219.904 206.737C218.367 204.915 215.798 203.41 213.042 202.717C208.275 201.519 193.457 201.198 192.384 202.269ZM237.205 202.322C237.217 202.744 237.046 211.285 236.825 221.302C236.606 231.318 236.644 240.082 236.911 240.776C237.272 241.715 240.789 242.039 250.632 242.039H263.868V239.574V237.108H252.503H241.138V230.734V224.359L251.268 224.078C260.921 223.81 261.413 223.692 261.714 221.578C262.024 219.397 261.851 219.36 251.584 219.36H241.138V213.476V207.592L252.256 207.313L263.374 207.034V204.569V202.104L250.28 201.829C243.077 201.678 237.194 201.9 237.205 202.322ZM282.956 203.534C279.119 205.868 277.704 208.328 277.704 212.666C277.704 218.932 281.714 222.184 292.034 224.288C303.103 226.545 306.072 229.93 301.384 234.95C299.708 236.746 298.282 237.108 292.908 237.108C287.046 237.108 286.172 236.834 283.482 234.15C278.433 229.113 274.082 231.358 278.467 236.739C284.508 244.151 298.746 244.862 305.532 238.091C307.716 235.91 308.341 234.378 308.341 231.192C308.341 224.882 305.006 222.192 293.736 219.414C283.997 217.013 281.94 215.397 283.043 211.011C284.306 205.99 296.964 204.978 300.713 209.598C302.936 212.336 306.208 213.025 307.014 210.927C307.695 209.157 304.18 205.043 300.237 202.996C296.246 200.925 286.76 201.22 282.956 203.534ZM322.177 221.825V242.039H324.647H327.118V221.825V201.611H324.647H322.177V221.825ZM341.942 221.825V242.039L351.578 242.017C362.345 241.992 367.154 240.443 371.774 235.507C375.318 231.722 376.532 228.205 376.532 221.721C376.532 212.317 371.116 205.129 362.202 202.7C360.027 202.107 354.58 201.62 350.095 201.617L341.942 201.611V221.825ZM389.379 221.797V242.039H403.215H417.051V239.574V237.108H405.686H394.321V230.699V224.29H404.203H414.086V221.825V219.36H404.203H394.321V213.476V207.592L405.439 207.313L416.557 207.034V204.569V202.104L402.968 201.83L389.379 201.556V221.797ZM430.887 221.825V242.039H433.9H436.913L436.618 226.754C436.456 218.347 436.545 211.499 436.816 211.535C437.088 211.572 442.211 218.339 448.201 226.574C457.192 238.933 459.52 241.546 461.543 241.546H463.994V221.825C463.994 202.125 463.992 202.104 461.77 201.788L459.547 201.474V216.826C459.547 225.27 459.209 232.178 458.797 232.178C458.384 232.178 457.453 231.232 456.729 230.074C456.005 228.917 450.969 222.04 445.54 214.79C437.624 204.221 435.195 201.611 433.277 201.611H430.887V221.825ZM485.975 204.518C479.828 208.408 476.99 213.92 477.044 221.864C477.113 232.108 482.56 239.504 491.851 241.97C499.88 244.1 510.326 240.054 514.205 233.31L515.99 230.206H513.336C511.691 230.206 509.226 231.519 506.853 233.657C503.44 236.735 502.427 237.108 497.497 237.108C488.08 237.108 483.139 232.557 482.465 223.26C482.02 217.115 483.365 213.538 487.611 209.581C492.685 204.851 504.762 205.977 508.221 211.502C509.466 213.493 514.89 214.297 514.89 212.492C514.89 210.717 508.966 204.797 505.593 203.199C503.685 202.296 499.721 201.611 496.404 201.611C491.643 201.611 489.726 202.145 485.975 204.518ZM527.964 221.578L528.232 241.546L541.821 241.82L555.409 242.094V239.634V237.173L544.291 236.894L533.173 236.615L532.879 230.453L532.585 224.29H542.514C548.377 224.29 552.505 223.886 552.593 223.304C553.096 219.957 552.83 219.848 543.056 219.36L533.173 218.867L532.877 213.197L532.58 207.527H543.995H555.409V204.569V201.611H541.553H527.697L527.964 221.578ZM215.223 209.062C217.796 210.86 218.205 215.938 216.018 218.925C214.876 220.485 213.034 220.929 206.051 221.332C201.34 221.603 197.301 221.64 197.076 221.414C196.851 221.188 196.666 217.971 196.666 214.265V207.527H204.846C210.651 207.527 213.665 207.973 215.223 209.062ZM364.588 209.255C369.424 211.724 371.807 216.624 371.32 223.098C370.602 232.626 364.923 237.104 353.554 237.106L346.883 237.108V222.318V207.527L354.048 207.529C358.922 207.53 362.293 208.081 364.588 209.255ZM205.56 266.138C205.56 271.258 204.43 273.783 203.099 271.636C202.758 271.084 200.706 270.634 198.54 270.634C194.016 270.634 189.82 273.983 189.638 277.738C189.176 287.318 194.794 292.414 201.913 288.872C203.885 287.89 205.166 287.694 205.382 288.342C205.57 288.906 206.355 289.369 207.125 289.369C208.268 289.369 208.525 286.749 208.525 275.071C208.525 263.02 208.292 260.773 207.043 260.773C205.906 260.773 205.56 262.027 205.56 266.138ZM369.834 274.813C370.077 287.271 370.303 288.888 371.837 289.182C373.34 289.469 373.567 288.68 373.567 283.184C373.567 276.288 375.193 273.592 379.351 273.592C382.18 273.592 383.654 277.439 383.309 283.919C383.096 287.925 383.367 288.928 384.73 289.189C386.194 289.471 386.414 288.563 386.414 282.265C386.414 273.175 384.934 270.634 379.638 270.634C377.603 270.634 375.405 271.166 374.753 271.817C373.831 272.737 373.567 271.642 373.567 266.887C373.567 261.404 373.36 260.773 371.564 260.773C369.632 260.773 369.569 261.277 369.834 274.813ZM464.488 275.071C464.488 288.711 464.579 289.369 466.465 289.369C468.35 289.369 468.441 288.711 468.441 275.071C468.441 261.431 468.35 260.773 466.465 260.773C464.579 260.773 464.488 261.431 464.488 275.071ZM344.393 263.763C344.01 264.382 344.161 265.354 344.729 265.921C346.057 267.246 349.153 266.09 348.613 264.47C348.063 262.822 345.267 262.353 344.393 263.763ZM474.371 264.79C474.371 266.201 474.903 266.732 476.089 266.504C478.665 266.009 478.952 262.746 476.419 262.746C475.005 262.746 474.371 263.379 474.371 264.79ZM516.867 264.718C516.867 266.032 517.526 266.69 518.843 266.69C520.161 266.69 520.82 266.032 520.82 264.718C520.82 263.403 520.161 262.746 518.843 262.746C517.526 262.746 516.867 263.403 516.867 264.718ZM355.778 267.676C355.778 269.976 355.339 270.634 353.801 270.634C352.484 270.634 351.825 271.292 351.825 272.606C351.825 273.92 352.484 274.578 353.801 274.578C355.528 274.578 355.778 275.236 355.778 279.781C355.778 286.533 357.695 289.369 362.258 289.369C366.453 289.369 367.035 286.699 362.943 286.229C360.35 285.932 360.212 285.643 359.937 279.959C359.649 274.031 359.661 274.001 362.38 274.043C364.213 274.071 365.227 273.517 365.459 272.359C365.729 271.015 365.134 270.634 362.768 270.634C360.052 270.634 359.731 270.321 359.731 267.676C359.731 265.375 359.292 264.718 357.754 264.718C356.217 264.718 355.778 265.375 355.778 267.676ZM439.781 267.676C439.781 269.976 439.342 270.634 437.805 270.634C436.487 270.634 435.828 271.292 435.828 272.606C435.828 273.879 436.487 274.578 437.686 274.578C439.247 274.578 439.611 275.51 439.967 280.411C440.473 287.393 441.875 289.369 446.326 289.369C450.467 289.369 450.996 286.694 446.946 286.229C444.353 285.932 444.216 285.643 443.94 279.959C443.652 274.031 443.664 274.001 446.383 274.043C448.216 274.071 449.23 273.517 449.462 272.359C449.732 271.015 449.137 270.634 446.771 270.634C444.055 270.634 443.734 270.321 443.734 267.676C443.734 265.375 443.295 264.718 441.758 264.718C440.22 264.718 439.781 265.375 439.781 267.676ZM528.726 267.604C528.726 269.976 528.297 270.634 526.749 270.634C525.432 270.634 524.773 271.292 524.773 272.606C524.773 273.92 525.432 274.578 526.749 274.578C528.504 274.578 528.726 275.236 528.726 280.424C528.726 284.424 529.216 286.759 530.278 287.82C532.309 289.845 537.62 289.895 537.62 287.89C537.62 286.992 536.702 286.41 535.286 286.41C533.189 286.41 532.886 285.851 532.304 280.92C531.537 274.412 531.841 273.705 535.126 274.332C537.158 274.72 537.62 274.42 537.62 272.721C537.62 271.152 537.007 270.634 535.15 270.634C533.667 270.634 532.63 270.042 532.555 269.155C532.487 268.341 532.377 267.127 532.308 266.457C532.24 265.786 531.406 265.088 530.455 264.905C529.111 264.647 528.726 265.248 528.726 267.604ZM398.554 270.365C395.409 270.936 391.356 276.154 391.356 279.632C391.356 287.233 397.797 291.816 404.533 289.008C408.782 287.237 410.133 284.882 410.133 279.252C410.133 272.916 405.23 269.152 398.554 270.365ZM214.455 280.001C214.455 288.711 214.593 289.369 216.431 289.369C218.171 289.369 218.408 288.711 218.408 283.88C218.408 277.21 219.431 275.103 223.328 273.747C224.971 273.176 226.314 272.242 226.314 271.671C226.314 270.342 222.797 270.332 220.319 271.654C219.002 272.358 218.408 272.358 218.408 271.654C218.408 271.093 217.518 270.634 216.431 270.634C214.593 270.634 214.455 271.292 214.455 280.001ZM230.401 272.958C225.583 278.074 226.846 286.482 232.804 288.966C236.473 290.497 239.025 290.183 242.934 287.721C244.793 286.55 244.998 286.008 244.028 284.841C242.983 283.586 242.61 283.603 241.089 284.976C238.856 286.991 233.3 286.503 231.849 284.164C230.654 282.237 232.387 280.403 235.208 280.612C236.024 280.672 238.581 280.67 240.891 280.608C244.861 280.5 245.091 280.335 245.091 277.575C245.091 271.046 235.143 267.92 230.401 272.958ZM251.668 272.437C249.572 274.749 249.611 275.224 251.945 275.833C253.078 276.129 254.083 275.747 254.41 274.899C255.187 272.875 261.281 273.557 261.69 275.715C261.924 276.948 260.966 277.511 257.746 278.028C251.726 278.995 249.044 280.941 249.044 284.341C249.044 287.765 251.153 289.69 254.754 289.549C256.234 289.492 259.113 289.383 261.151 289.308L264.857 289.173V281.536C264.857 275.389 264.504 273.579 263.049 272.266C260.555 270.014 253.774 270.115 251.668 272.437ZM271.775 280.242C271.775 288.539 271.956 289.479 273.504 289.184C274.9 288.919 275.292 287.626 275.533 282.494C275.852 275.715 276.856 273.592 279.743 273.592C282.441 273.592 283.138 275.41 283.139 282.453C283.14 287.693 283.444 288.906 284.825 289.171C286.266 289.449 286.551 288.468 286.801 282.386C287.027 276.9 287.487 275.031 288.822 274.193C292.166 272.097 293.96 274.584 294.505 282.065C294.901 287.514 295.341 288.922 296.729 289.185C298.235 289.471 298.458 288.67 298.458 282.967C298.458 276.646 297.372 272.904 295.098 271.388C293.444 270.286 288.121 270.496 286.902 271.712C286.145 272.467 285.25 272.483 283.903 271.764C282.847 271.2 279.686 270.791 276.879 270.855L271.775 270.97V280.242ZM313.701 273.248C318.112 291.406 320.262 293.37 324.085 282.735L326.47 276.099L328.607 282.488C331.743 291.856 333.564 291.325 337.131 280.001C338.668 275.12 339.935 271.016 339.946 270.88C339.957 270.744 339.149 270.634 338.151 270.634C336.771 270.634 335.933 272.081 334.653 276.675C333.727 279.998 332.762 282.51 332.508 282.256C332.254 282.004 331.231 279.396 330.234 276.461C328.946 272.668 327.854 271.042 326.458 270.834C324.837 270.592 324.179 271.581 322.685 276.504C321.689 279.783 320.588 282.466 320.239 282.466C319.889 282.466 318.936 279.916 318.123 276.801C317.08 272.805 316.11 271.032 314.832 270.787C313.297 270.492 313.124 270.87 313.701 273.248ZM344.907 280.001C344.907 287.671 345.176 289.369 346.389 289.369C347.603 289.369 347.872 287.671 347.872 280.001C347.872 272.332 347.603 270.634 346.389 270.634C345.176 270.634 344.907 272.332 344.907 280.001ZM416.063 277.809C416.063 287.983 417.253 289.418 425.507 289.191L431.875 289.016V279.825C431.875 271.292 431.734 270.634 429.898 270.634C428.116 270.634 427.922 271.292 427.922 277.339C427.922 284.483 426.957 286.41 423.383 286.41C420.608 286.41 420.016 284.749 420.016 276.962C420.016 271.292 419.81 270.634 418.039 270.634C416.243 270.634 416.063 271.292 416.063 277.809ZM474.371 279.929C474.371 287.281 474.671 289.369 475.73 289.369C477.388 289.369 478.014 285.977 477.909 277.552C477.844 272.286 477.524 271.1 476.1 270.824C474.551 270.524 474.371 271.468 474.371 279.929ZM484.254 280.176C484.254 287.689 484.524 289.369 485.736 289.369C486.864 289.369 487.222 288.129 487.233 284.192C487.25 278.226 488.916 274.261 491.625 273.74C494.603 273.168 496.113 276.333 496.113 283.148C496.113 287.937 496.444 289.369 497.552 289.369C498.651 289.369 499.06 287.701 499.281 282.323C499.505 276.896 499.969 275.029 501.301 274.193C504.645 272.097 506.439 274.584 506.984 282.065C507.38 287.514 507.82 288.922 509.207 289.185C510.714 289.471 510.937 288.67 510.937 282.967C510.937 276.646 509.851 272.904 507.577 271.388C505.883 270.26 500.588 270.508 499.317 271.776C498.465 272.626 497.829 272.633 496.827 271.802C496.087 271.189 492.955 270.754 489.867 270.835L484.254 270.982V280.176ZM516.867 280.001C516.867 288.711 517.005 289.369 518.843 289.369C520.681 289.369 520.82 288.711 520.82 280.001C520.82 271.292 520.681 270.634 518.843 270.634C517.005 270.634 516.867 271.292 516.867 280.001ZM542.938 273.139C540.419 276.975 542.315 280.155 547.966 281.575C551.292 282.411 552.444 283.178 552.444 284.556C552.444 286.013 551.714 286.41 549.035 286.41C546.889 286.41 545.285 285.805 544.709 284.78C544.127 283.741 543.171 283.387 542.077 283.805C540.541 284.393 540.511 284.69 541.797 286.621C544.406 290.542 550.769 291.036 554.668 287.62C558.365 284.381 556.007 280.276 549.435 278.51C546.569 277.74 545.527 276.944 545.527 275.526C545.527 274.043 546.204 273.592 548.433 273.592C550.032 273.592 551.614 274.036 551.95 274.578C552.884 276.086 555.409 275.75 555.409 274.119C555.409 272.129 552.268 270.634 548.085 270.634C545.426 270.634 544.188 271.236 542.938 273.139ZM202.764 275.224C205.017 277.257 205.108 282.214 202.936 284.607C199.504 288.391 192.713 285.703 192.713 280.561C192.713 274.618 198.621 271.482 202.764 275.224ZM241.069 275.435C241.612 276.448 241.776 277.557 241.433 277.9C240.443 278.887 231.255 278.622 231.255 277.606C231.255 273.91 239.296 272.13 241.069 275.435ZM405.361 275.224C409.494 278.956 406.403 286.41 400.723 286.41C396.972 286.41 395.309 284.41 395.309 279.897C395.309 274.423 401.359 271.61 405.361 275.224ZM261.892 281.545C261.892 282.123 261.431 283.454 260.869 284.503C259.462 287.126 252.997 287.235 252.997 284.636C252.997 283.659 253.531 282.328 254.183 281.678C255.651 280.213 261.892 280.106 261.892 281.545Z" fill="#2AB577"/>
</svg>
