<svg width="788" height="178" viewBox="0 0 788 178" fill="none" xmlns="http://www.w3.org/2000/svg">
<g clip-path="url(#clip0_1221_262)">
<path d="M75.5433 19.399C75.2045 19.1772 74.8401 18.947 74.4444 18.7112L71.0197 16.4823C70.6098 15.0226 70.2027 13.7734 69.7927 12.7319C66.4847 6.28386 59.9114 2.17135 50.0757 0.394412C40.2542 -1.4106 31.6882 2.97982 24.3748 13.5657C20.7679 19.3597 18.1061 24.0561 16.3866 27.6549C14.2885 32.0312 13.2665 34.3528 13.3235 34.6167C13.3804 34.8665 13.5057 35.0826 13.7049 35.2623C13.9014 35.4279 14.1348 35.5206 14.4024 35.5346C14.7269 35.5486 15.0856 35.5486 15.4813 35.5346L15.4614 35.5542H17.9353C16.0478 39.8071 14.4052 43.4957 13.0103 46.6201C11.6296 49.7333 10.1208 52.1503 8.48673 53.8739C7.25976 55.1511 6.42849 56.0691 5.99293 56.6249C4.75172 58.5562 5.65416 59.55 8.69739 59.6061H8.71732C8.76002 59.6061 8.79418 59.6117 8.82265 59.6258C9.52581 59.7773 10.1464 59.8896 10.6816 59.9598C10.6959 59.9458 10.7101 59.9458 10.7243 59.9598H10.8923C10.1749 61.1837 9.30661 62.6491 8.29315 64.3558H8.31307C6.60784 67.2444 5.40364 69.274 4.69763 70.4418C2.89275 73.4286 1.50636 75.6182 0.532751 77.0078C-0.440857 78.3833 -0.0793129 79.0767 1.61169 79.0907C7.43056 79.6325 12.1079 79.9385 15.6464 80.0086C11.4189 86.0665 8.40987 92.2619 6.62207 98.5977C5.3951 102.974 4.74887 107.426 4.6777 111.957C4.87413 124.713 8.84258 134.395 16.5774 141.008C24.8616 148.052 33.197 152.291 41.5809 153.722C52.4443 155.611 63.0828 155.474 73.4936 153.307C78.5808 152.251 85.1825 150.126 93.2959 146.929C102.369 143.358 109.084 138.614 113.437 132.694C117.776 126.776 119.418 120.864 118.362 114.958C117.306 109.052 114.115 103.252 108.788 97.5563C97.9533 86.0104 92.4647 79.1749 92.3252 77.0499C92.1003 75.7305 92.0291 74.7368 92.1145 74.0687C92.2569 72.943 92.9743 71.7415 94.2696 70.4642C95.5364 69.2151 97.6288 68.4712 100.547 68.2353C102.041 68.109 103.695 68.0417 105.514 68.0276C106.741 67.7076 107.325 66.8177 107.268 65.3608C107.211 63.9011 106.528 62.388 105.218 60.8188C103.738 59.0391 101.794 57.6635 99.3853 56.6923C96.5527 55.5525 93.3614 55.109 89.8115 55.3589C86.0907 55.6227 82.7599 56.594 79.8135 58.2755C76.588 60.1086 73.6701 62.8961 71.0624 66.6325C70.7094 67.076 70.3649 67.5279 70.0262 67.9883C70.1941 67.1827 70.3279 66.3152 70.4276 65.3833C70.6952 63.1881 70.809 60.4847 70.7663 57.2761H70.7464C70.7464 56.9702 70.7322 56.6586 70.7037 56.3386C71.9705 56.2263 72.6481 56.1645 72.7335 56.1505C72.8616 56.1364 73.4651 56.1084 74.5497 56.0663C75.3525 56.0382 76.9097 56.3779 79.2213 57.0881C79.4178 57.1442 79.6028 57.1498 79.7708 57.1077C81.1088 56.8579 82.0966 56.274 82.7286 55.356C83.3492 54.4802 83.594 53.3489 83.4688 51.9594L82.9393 47.8946L82.8539 47.5409C82.0938 45.9436 81.3678 44.6383 80.6761 43.6221C79.9729 42.5525 79.4149 41.9883 79.0078 41.9349C78.6121 41.7132 78.1139 41.803 77.5076 42.2072L77.4876 42.2269C77.3197 42.3392 77.1859 42.4487 77.0862 42.5609L77.0663 42.5806C77.3339 43.1505 77.4392 43.5884 77.3823 43.8944C77.3254 44.2284 77.22 44.4446 77.0663 44.54C76.9126 44.6383 76.8044 44.7 76.7503 44.7281H76.7304C75.66 45.3681 74.4131 45.6376 72.9897 45.5422C72.0588 45.458 71.3983 45.1885 71.0026 44.7281C70.6638 44.2424 70.5813 43.5322 70.7492 42.6031V42.5834C71.1165 41.2219 72.2068 40.1384 74.0259 39.3327L74.0458 39.3524V39.3327C75.7084 38.7207 76.9553 38.7713 77.7865 39.4787C78.8 40.4247 79.5402 41.3539 80.0071 42.2718C80.3743 43.0354 80.8184 43.6614 81.3394 44.147C81.8746 44.6326 82.3614 44.8769 82.7969 44.8769C83.4033 45.0425 84.9662 44.5232 87.4885 43.3133C88.7411 42.8557 89.5666 42.2999 89.9623 41.6458C90.4264 40.8823 90.4833 39.7482 90.1303 38.2491C90.0307 37.8056 89.82 37.1375 89.4955 36.2476C89.1709 35.3718 88.8891 34.6981 88.65 34.2265C89.4528 34.2265 90.1588 34.0889 90.7623 33.811C91.7217 33.3394 92.4106 32.4972 92.8348 31.2902C93.0597 30.5968 93.3785 29.7266 93.7856 28.6851C93.686 28.2696 92.6782 27.7475 90.7623 27.1215C88.5503 26.372 85.1199 25.4821 80.4682 24.4547C80.7216 24.5249 80.4483 24.4687 79.6427 24.2891V24.2694H79.6227C79.284 22.6721 77.926 21.0524 75.5433 19.413M52.4414 10.2223L52.4614 10.242C53.4606 9.72826 54.4769 9.39421 55.5046 9.24262C55.237 9.68615 55.0263 10.2027 54.8698 10.7838C51.7411 11.6315 49.3612 12.7628 47.7271 14.1804C45.9109 15.7356 44.2341 17.681 42.6968 20.0165C41.188 22.3493 40.1831 25.1144 39.6735 28.3117C39.1525 31.5063 38.7853 33.9654 38.5746 35.689C38.3924 37.4266 38.2729 39.5517 38.2159 42.0669C38.1732 43.4705 37.9056 47.2433 37.4131 53.3826C36.9206 59.5387 36.4623 63.5726 36.0381 65.4899C35.8132 66.5314 35.6367 67.3314 35.5086 67.8873C32.9009 67.6655 29.8378 67.5195 26.3163 67.4493C26.47 66.9918 26.6266 66.5117 26.7803 66.0121C28.3147 61.428 30.6833 53.4528 33.8831 42.0865H33.8632C36.7384 31.6944 38.1761 26.4899 38.1761 26.4759C39.9667 21.0861 42.9302 16.749 47.0752 13.4702C48.3847 12.4568 50.1754 11.3733 52.4443 10.2195M56.3956 3.98759H56.4156C58.5706 4.695 60.2701 5.38276 61.5085 6.05086L61.5284 6.07051C62.9234 6.79196 64.0649 7.63972 64.9531 8.61381C65.8271 9.58509 66.5872 10.8427 67.2363 12.3867C67.5181 13.0127 67.8 13.7481 68.0818 14.5959L66.7922 13.7622C66.6925 13.706 66.5872 13.6639 66.4762 13.6358C66.3481 13.6078 66.2086 13.5797 66.0549 13.5516C65.2521 10.009 62.8978 7.86149 58.9948 7.11198H58.9748C56.3814 6.6123 53.8677 6.99407 51.4308 8.2573V8.23765C49.0082 9.46158 47.0837 10.6266 45.6603 11.7382C41.1937 15.2808 37.9825 19.9576 36.0239 25.7628C36.0239 25.7769 34.5806 31.015 31.6911 41.4774C28.5339 52.8155 26.4216 60.0328 25.3512 63.1319C24.3093 66.2451 23.33 69.0382 22.4133 71.5085C21.5251 74.0097 20.9472 75.6014 20.6796 76.2807C20.5657 76.6007 20.1102 76.7944 19.3046 76.8646C18.684 76.9207 17.5424 76.9123 15.8799 76.845C14.3853 76.7888 11.9285 76.6092 8.50381 76.3032L3.8322 75.8653C5.4805 73.1844 6.48827 71.5787 6.85551 71.0509C7.41918 70.2593 8.55221 68.4038 10.2574 65.4871V65.4675C11.7378 62.9523 12.905 60.9872 13.7647 59.5696C13.7789 59.5415 13.7932 59.5219 13.8074 59.5079H13.8273L13.8473 59.4657C13.8615 59.4377 13.8757 59.418 13.89 59.404V59.3619C14.3398 58.6404 14.7782 57.9527 15.1995 57.2986C15.4813 57.7028 15.7062 58.0565 15.877 58.3625C16.862 60.5016 18.2314 62.0371 19.9764 62.9691C20.4974 63.261 21.2034 63.5446 22.0888 63.8225C22.2852 63.8927 22.4902 63.9067 22.7008 63.8646C22.9115 63.8084 23.0965 63.713 23.2503 63.5726C23.3898 63.421 23.4894 63.233 23.5463 63.0112C26.8002 48.8546 31.4918 34.8132 37.621 20.8924C39.3974 17.2234 41.0314 14.4331 42.5232 12.5158L45.2703 8.82716C45.2703 8.82716 45.2504 8.81312 45.2504 8.78505C44.1088 8.95067 42.8278 9.65247 41.4044 10.8904C39.4173 13.0155 37.4815 16.0388 35.5912 19.9548V19.9969C29.5616 33.6257 24.91 47.3893 21.6418 61.282C21.4312 61.1837 20.7622 60.6083 19.6348 59.5528C18.832 58.7752 18.1004 56.9056 17.4371 53.9468C19.3672 49.7922 21.2917 45.2137 23.2076 40.2142C23.3471 39.8661 23.4837 39.5208 23.609 39.1727C29.0464 26.1811 33.9087 17.3385 38.1932 12.6421L41.003 9.41105C41.2421 9.17525 41.4613 8.94506 41.6577 8.72329C40.1233 9.08542 38.6145 9.84897 37.1341 11.0168C32.4711 15.4914 27.2557 24.5979 21.4938 38.339C21.4938 38.353 21.4881 38.367 21.4739 38.3811C21.36 38.7432 21.2404 39.0969 21.1152 39.445C18.0719 47.3079 15.7689 52.4141 14.2031 54.7637C14.1747 54.7778 13.5113 55.749 12.216 57.6804C11.2709 57.4446 10.3144 57.2986 9.34077 57.2425C9.81903 56.5603 10.4254 55.6648 11.157 54.5532C11.6638 53.6633 12.1306 52.8717 12.552 52.1783C13.1014 51.2744 14.1006 49.2897 15.5525 46.2187C16.7225 43.7456 18.4192 39.9952 20.6454 34.9647C20.6881 34.9367 20.7166 34.8889 20.7308 34.8188C21.1949 33.7633 21.6817 32.6516 22.1884 31.4838C25.1605 24.7859 29.8606 17.7287 36.2858 10.3093C36.4395 10.1297 37.1028 9.28192 38.2729 7.76605C35.836 8.25169 32.2576 11.595 27.5376 17.7905C24.4232 22.2089 21.9521 26.473 20.1188 30.5856C19.7088 31.5316 19.3074 32.4411 18.9146 33.3169C17.8015 33.331 16.9361 33.331 16.3154 33.3169C20.7679 25.2996 25.6786 18.0206 31.0477 11.4771C37.974 3.06684 46.3066 0.540385 56.0569 3.8725C56.1565 3.94268 56.2675 3.97636 56.3956 3.97636M59.9684 10.6237C59.715 10.1802 59.4673 9.7844 59.2282 9.43631C61.4971 10.0202 62.9689 11.3199 63.6465 13.3327C63.5753 13.3186 63.4984 13.3186 63.413 13.3327H63.3931C62.6757 13.3607 62.0124 13.4506 61.406 13.605C61.0815 12.7291 60.6032 11.7354 59.9684 10.6237ZM63.5611 15.3763C64.7026 15.5279 65.625 15.7861 66.331 16.1483L73.2203 20.5864H73.2402C73.6074 20.7941 73.932 21.0103 74.2138 21.2321H74.2337C76.2777 22.6356 77.3481 23.969 77.4449 25.2323C77.4449 25.4961 77.5446 25.7404 77.741 25.9621C77.9232 26.1699 78.1566 26.2962 78.4385 26.3383C79.7338 26.5039 82.814 27.4078 87.6735 29.0472L87.6934 29.0669H87.7361L87.7788 29.0865C88.7097 29.3504 89.3275 29.6704 89.6378 30.0466C89.709 30.2543 89.6577 30.4985 89.4898 30.7764V30.7961C88.8265 31.7281 87.9411 32.2474 86.828 32.3597C86.5604 32.4018 86.3355 32.5113 86.1505 32.6937C85.9683 32.8734 85.8544 33.0896 85.8117 33.3394C85.7975 33.6033 85.8544 33.8391 85.9797 34.0468C86.6971 35.2005 87.1924 36.3262 87.46 37.4238V37.4435C87.7134 38.5972 87.3319 39.4646 86.3184 40.0485C86.29 40.0766 86.2558 40.0963 86.2131 40.1103C84.2545 41.4998 83.0845 42.2353 82.7058 42.3195C82.5236 42.1932 82.2959 41.862 82.0283 41.3202V41.3005C81.4931 40.1608 80.6049 39.0155 79.3665 37.8617C77.9574 36.4441 75.8934 36.2504 73.1747 37.2779H73.132C70.4959 38.4316 68.9671 40.0429 68.5458 42.1118C68.5316 42.1258 68.5259 42.1455 68.5259 42.1736C68.2156 43.8691 68.4547 45.3681 69.2433 46.6763C69.6788 47.6897 70.9058 48.2539 72.9214 48.3634C74.9511 48.4616 76.3318 48.3634 77.0635 48.0714C77.8236 47.7654 78.3303 47.2798 78.5865 46.6117C78.8399 45.9296 78.968 45.5085 78.968 45.3401L78.9879 44.9442C79.3409 45.5281 79.785 46.3899 80.3202 47.5296L80.7415 52.0941C80.8696 53.3994 80.3316 54.2135 79.1359 54.5335C77.2912 53.9918 75.734 53.756 74.4643 53.8261C73.0836 53.8823 72.3435 53.9244 72.2438 53.9525C72.2296 53.9525 72.2153 53.9581 72.2011 53.9721C72.1584 53.9721 71.5748 54.0198 70.4475 54.1181C70.1514 49.1157 68.0533 44.5175 64.1503 40.3208C60.2331 36.1381 57.0846 32.7499 54.7018 30.1504C52.3219 27.5791 52.4557 23.8231 55.1032 18.8768C55.1459 18.8067 55.1744 18.7309 55.1886 18.6466C55.3025 18.2565 55.3993 17.8831 55.4847 17.521L55.5046 17.5013C55.758 16.4599 55.9829 15.5279 56.1821 14.7082V14.6661C56.4213 13.706 56.6177 12.9004 56.7743 12.2491V12.207C56.7743 12.207 56.8027 12.1789 56.817 12.1649L56.9024 11.915V11.8308C57.0305 11.3171 57.1899 10.8652 57.3892 10.475C57.4888 10.7669 57.6852 11.1768 57.9813 11.7045C58.7983 13.1362 59.3193 14.3236 59.5442 15.2696C59.6011 15.4914 59.7122 15.6739 59.883 15.8114C59.9399 15.8816 60.0111 15.9377 60.0936 15.977C60.1933 15.9911 60.2758 16.0107 60.347 16.0388C60.4182 16.0809 60.9107 15.977 61.8274 15.7272C62.7725 15.4773 63.3504 15.3594 63.5611 15.3735M54.2207 13.2906C54.178 13.4169 54.1438 13.5348 54.1154 13.6443C51.4251 14.8261 49.6202 16.0697 48.7036 17.375C47.5762 18.9442 46.7934 20.884 46.3578 23.1887C45.9479 25.3698 45.6803 27.6829 45.555 30.128C45.4269 32.6151 45.5835 35.1921 46.019 37.8589C46.4546 40.4443 46.9926 43.1954 47.6246 46.112C48.2595 48.9753 48.7036 51.1705 48.9569 52.6976C49.3925 55.0444 49.6743 57.206 49.8024 59.1794C50.1127 63.96 49.5832 68.4038 48.2168 72.5163C47.7385 73.9339 47.3656 74.9698 47.098 75.621C45.7173 73.9676 43.2662 71.225 39.7418 67.3876C39.4742 67.803 39.6564 66.0682 40.2913 62.1775C40.63 60.0524 40.7923 57.7674 40.7781 55.3196C40.9745 52.4562 41.1225 47.6307 41.2222 40.8345C41.3218 33.9991 41.7716 29.2185 42.5744 26.4955C43.3914 23.7725 44.2796 21.6896 45.2362 20.2439C46.1671 18.7982 47.4965 17.3273 49.2302 15.8254C50.4287 14.8261 52.0913 13.9783 54.2178 13.2821M52.04 17.7848C51.1091 19.9379 50.5312 21.3612 50.3063 22.0574C50.0957 22.7788 49.8423 23.9466 49.5462 25.5579C49.2359 27.1692 49.0822 29.3027 49.0822 31.9555C49.0964 34.5802 49.3925 37.9656 49.9704 42.1062C50.5341 46.2468 51.2885 49.4778 52.2308 51.7965C53.7794 55.589 56.1195 60.4791 59.2481 66.4696C61.164 69.6361 62.502 72.4995 63.265 75.0568C62.4337 76.5305 61.9697 78.1559 61.8701 79.9328C61.3776 80.3623 60.848 80.9182 60.2844 81.6003C58.7215 83.4895 57.9101 85.4012 57.8532 87.3325C57.0362 87.8041 56.3871 88.4358 55.9088 89.2302C55.6128 89.7158 55.3736 90.2801 55.1914 90.9173L54.3659 90.3952C54.3232 90.3671 54.2748 90.339 54.2178 90.311L46.2724 85.3703C46.7507 84.5647 47.562 83.0011 48.7036 80.6824C51.1404 75.694 52.2763 70.3323 52.1055 64.5944C51.9347 58.8566 51.6329 54.7581 51.1974 52.299C50.9298 50.7579 50.48 48.5346 49.8451 45.6292C49.2245 42.7518 48.6893 40.0373 48.2395 37.48V37.4996C47.8296 34.9844 47.6901 32.5534 47.8182 30.2066C47.9463 27.8738 48.3762 25.4961 49.1078 23.0792C49.8394 20.6622 50.8187 18.8965 52.0457 17.7848M88.334 59.1963C91.363 58.6545 93.7714 58.6348 95.562 59.1345C96.8431 59.4966 97.7028 60.0861 98.1412 60.9058C98.8871 62.169 98.591 63.0589 97.253 63.5726C95.8011 63.9488 94.4489 64.3165 93.1963 64.6759C90.731 65.3692 88.6016 66.231 86.8138 67.2613C84.4196 68.5947 82.6233 70.1583 81.4248 71.9492C80.0725 73.9788 79.3665 76.4856 79.3124 79.4725C79.1986 85.1823 84.1178 92.3518 94.0646 100.981C96.2054 103.218 97.7427 105.908 98.6707 109.046C99.5447 111.963 99.9233 115.354 99.8123 119.216C99.6159 126.26 96.9029 132.317 91.6761 137.39C88.6186 140.377 84.1235 143.35 78.1908 146.311C73.8238 148.492 67.3758 149.784 58.8524 150.188C49.1021 150.646 40.4934 149.542 33.0262 146.875C29.3624 145.584 25.4452 143.221 21.2746 139.79C15.6806 135.192 12.068 130.251 10.4311 124.971C9.3607 121.471 8.66323 117.768 8.3387 113.863C8.21059 112.403 8.18497 110.904 8.25329 109.36C8.63476 110.194 9.32369 110.916 10.3258 111.528C11.9598 112.513 13.4402 112.667 14.7639 111.985C15.7375 111.651 16.4749 111.255 16.9844 110.798C17.8869 109.894 18.2114 108.886 17.9581 107.777C17.9154 107.541 17.8727 107.348 17.8299 107.193C17.8157 107.151 17.81 107.117 17.81 107.089C17.7673 106.952 17.7246 106.859 17.6819 106.817C17.6534 106.733 17.6051 106.657 17.5339 106.587C17.4912 106.559 17.4627 106.531 17.4485 106.503V106.629C17.4627 106.657 17.0044 106.969 16.0735 107.567C15.1283 108.165 14.186 108.358 13.2409 108.151C12.2958 107.929 11.4588 107.373 10.7272 106.483C9.9813 105.593 9.54289 103.982 9.41764 101.649C9.28953 101.927 9.16996 102.205 9.05894 102.483C9.29807 101.259 9.5799 100.024 9.90444 98.7746C10.0183 99.5522 10.3343 100.22 10.8553 100.776C12.2929 102.331 13.7163 102.938 15.1255 102.59C16.5347 102.255 17.4855 101.52 17.978 100.38C18.442 99.2967 18.5274 98.0054 18.2313 96.5036C18.2171 96.4194 18.2029 96.338 18.1886 96.2537C18.0207 95.5323 17.8869 95.0803 17.7872 94.8979V94.9821C17.7872 95.5379 17.6449 96.032 17.3659 96.4615C17.0129 97.0033 16.5347 97.3289 15.9283 97.4412C14.9831 97.6489 13.9782 97.3429 12.905 96.5232C12.2417 95.9955 11.7435 95.3835 11.4047 94.6901C11.4189 94.4122 11.4332 94.1343 11.4474 93.8564C12.2075 91.8128 13.1185 89.8141 14.1746 87.8547C14.1462 88.5621 14.223 89.2583 14.4081 89.9376C14.9433 91.8268 15.8372 93.1687 17.0926 93.9603C18.3452 94.7238 19.8256 95.0439 21.5308 94.9203C22.0375 94.8782 22.567 94.8024 23.1165 94.6901C25.132 94.2607 26.6237 93.4606 27.5973 92.2928C27.6543 92.2367 27.7112 92.1805 27.7653 92.1272C28.5966 91.0296 28.8499 89.7804 28.5254 88.3768C28.3859 87.6694 28.2635 87.2231 28.1667 87.0434C27.9703 88.3207 26.8344 89.1544 24.7648 89.5446C22.6923 89.9348 21.1095 89.5249 20.0106 88.3151C19.0939 87.2876 18.4392 85.8897 18.0463 84.1268C17.9609 83.7646 17.8983 83.4811 17.8556 83.2734C17.8556 83.2593 17.7929 82.9113 17.6648 82.2319C17.9609 81.8165 18.2627 81.3982 18.573 80.9827C18.8263 80.6346 19.0882 80.295 19.3558 79.9609C20.4405 79.9048 21.3344 79.8093 22.0404 79.669C22.8574 77.558 24.0417 74.195 25.5903 69.5828C26.9283 69.7484 29.0578 70.0488 31.9729 70.4783H31.953C34.7144 70.8685 36.4395 71.1043 37.1313 71.1857C37.1455 71.1857 37.1598 71.1913 37.174 71.2053C37.4274 71.2474 37.675 71.211 37.9142 71.1015C38.0138 71.0453 38.0964 70.9836 38.1675 70.9134C39.2949 72.1485 40.5418 73.5044 41.9082 74.9782C43.3743 76.5614 44.5985 77.8948 45.5863 78.9784C45.276 79.5763 44.9743 80.1518 44.6782 80.7076C44.664 80.7217 44.6583 80.7413 44.6583 80.7694C43.6163 81.5329 42.7424 82.0607 42.0363 82.3526C40.8805 82.8242 39.6422 83.06 38.3156 83.06C35.2723 83.06 33.2369 82.1982 32.2063 80.4746C31.8391 79.8627 31.5146 79.0093 31.2327 77.9117C31.0932 77.3278 30.9708 76.8337 30.874 76.4323C30.5068 77.7517 30.2335 79.2535 30.0484 80.935C29.8662 82.6025 30.1822 84.2419 30.9993 85.8532C31.8163 87.4645 33.5415 88.2786 36.1776 88.2926C38.7995 88.3066 40.9062 87.6105 42.4975 86.2097C42.6513 86.0721 42.7993 85.9374 42.9416 85.8139C48.3534 89.1207 52.319 91.5461 54.8413 93.0872C54.8128 93.3371 54.7986 93.5869 54.7986 93.8368C53.9816 95.0719 53.1987 96.3436 52.4528 97.6517C51.6215 99.555 51.2828 101.071 51.4394 102.194C51.5931 103.305 51.7411 103.959 51.8835 104.153C51.3198 104.945 50.8757 105.717 50.5511 106.466C49.8053 108.246 49.3612 109.787 49.2188 111.092C48.9939 113.428 49.5149 115.643 50.7817 117.74C51.2458 118.517 51.7895 119.2 52.4101 119.783C52.6919 120.199 53.0506 120.645 53.4891 121.117C53.7424 121.409 54.0328 121.715 54.3545 122.035C54.4541 122.105 54.5224 122.172 54.5651 122.243C56.0882 123.716 57.7223 124.965 59.4673 125.993C62.0323 127.534 64.6172 128.452 67.2249 128.744C69.2404 128.758 71.1136 128.446 72.8473 127.806C73.875 127.43 74.8828 126.973 75.8706 126.431C78.0257 124.957 79.4975 123.382 80.2889 121.701C81.2198 119.755 81.2483 117.754 80.3743 115.699C80.1779 115.295 79.9644 114.907 79.7395 114.531C79.1331 113.504 78.7118 112.794 78.4726 112.406C77.8947 111.587 77.3538 110.918 76.8443 110.405L76.2749 109.759C74.6124 108.549 73.337 107.772 72.4488 107.423C71.236 106.952 70.0603 106.68 68.9187 106.609C67.7345 106.539 66.3908 106.741 64.882 107.213C63.4016 107.685 62.2885 108.457 61.5427 109.526C60.8509 110.596 60.4865 111.595 60.4438 112.527C60.1335 114.318 59.0973 115.458 57.3379 115.946C55.59 116.46 54.4086 115.876 53.788 114.194C53.1531 112.555 53.0193 110.921 53.3866 109.296C53.8506 107.238 55.1487 105.593 57.2753 104.355C59.3876 103.12 61.3975 102.458 63.2991 102.376C65.3972 102.278 67.8512 102.834 70.6553 104.044C71.9221 104.599 73.3313 105.579 74.8828 106.983C75.9532 107.887 76.6592 108.51 76.9951 108.858C77.5019 108.844 77.4392 108.482 76.8044 107.774C75.6059 106.55 74.544 105.428 73.6131 104.397C70.8233 101.298 67.7943 98.9234 64.5261 97.2699C61.258 95.6586 59.3962 94.6986 58.9464 94.3926C58.5251 94.1287 58.2546 93.6627 58.1436 92.9974C58.6788 91.2598 61.258 91.9335 65.8784 95.0186C67.2875 95.9646 69.0269 96.8797 71.0994 97.7696C73.411 98.7549 74.6351 99.2911 74.7775 99.3753C74.285 98.7213 73.4964 97.9998 72.4118 97.2082C70.9172 96.1948 69.6703 95.333 68.6711 94.6228C63.655 91.1082 60.9705 88.4666 60.6175 86.7037C60.3641 86.19 60.4125 85.6539 60.7655 85.098C61.0758 84.5984 61.6537 84.2362 62.4992 84.0145C65.3745 90.3783 70.5927 94.6986 78.1595 96.978C78.5694 97.1717 78.5751 97.0903 78.1794 96.7282C77.7438 96.3127 76.7133 95.4565 75.0935 94.1652C73.8807 93.1939 72.7278 91.9082 71.6261 90.311C70.4987 88.5059 69.6817 87.2118 69.175 86.4343C67.5978 84.0987 66.9146 81.9119 67.1253 79.8683C67.3786 77.8247 67.5978 76.6793 67.78 76.4295C67.8797 76.3312 67.9907 76.2498 68.1188 76.1797C69.3856 80.3343 71.3243 84.1969 73.932 87.7677C76.6649 91.518 79.6256 94.2073 82.8083 95.8327C81.9913 95.027 80.9778 93.9013 79.7651 92.4556C78.3417 90.7461 77.1375 89.1628 76.1496 87.7031C74.3875 85.0503 73.1918 82.5267 72.557 80.1378C71.7542 77.1369 71.72 74.0237 72.4516 70.8011C73.1292 67.8283 74.86 65.3327 77.6499 63.32C80.3828 61.3325 83.947 59.957 88.3454 59.1934M56.4327 35.8097L60.5321 40.3517C65.6051 46.811 68.1957 51.7994 68.3095 55.3167C68.3238 55.415 68.3295 55.5048 68.3295 55.589C68.4433 56.1589 68.506 56.7203 68.5202 57.2761C68.5629 60.3753 68.449 62.9859 68.1814 65.111C68.0135 66.7082 67.7316 68.1062 67.3359 69.2993C67.3075 69.3694 67.0883 70.0207 66.6812 71.2587C66.3851 71.4804 66.0976 71.7247 65.8157 71.9885C59.4474 61.8041 55.4163 53.857 53.7253 48.1472C52.134 42.8389 51.3369 36.1016 51.3369 27.9328C51.7326 30.5856 53.4293 33.2131 56.4298 35.8097M59.5784 97.5198C61.3405 98.0475 62.5447 98.4854 63.1938 98.8335C64.7994 99.7795 65.6392 100.279 65.7076 100.335C65.1154 100.17 64.5375 100.029 63.9738 99.9199C61.4089 99.4202 59.4161 99.3978 57.9927 99.8582C57.0077 100.15 56.3586 100.31 56.0483 100.338C55.2313 98.1851 56.407 97.2475 59.5784 97.5254M64.102 112.468C64.455 111.272 65.2634 110.438 66.5331 109.967C68.0676 109.397 69.787 109.369 71.6887 109.883C73.7612 110.424 75.2671 111.48 76.2123 113.049C76.8329 114.091 77.1346 115.168 77.1204 116.28C77.1062 116.322 77.0293 116.864 76.887 117.905C76.7048 118.947 76.2891 119.823 75.6401 120.53C74.991 121.238 74.2024 121.9 73.2715 122.509C72.3548 123.121 71.4666 123.579 70.6098 123.885C69.1863 124.398 67.6092 124.676 65.8755 124.718C64.2699 124.761 62.67 124.601 61.0786 124.238C59.6552 123.89 58.4026 123.419 57.318 122.821C57.1757 122.765 57.0561 122.709 56.9593 122.655C56.5095 122.391 56.0996 122.105 55.7323 121.802C59.7207 123.845 62.3483 123.205 63.6151 119.885C63.6151 119.8 63.6208 119.739 63.6351 119.696C63.692 119.559 63.7347 119.413 63.7632 119.259C63.9027 118.509 63.9454 117.445 63.8913 116.07C63.8343 114.346 63.9055 113.145 64.102 112.465M36.3741 68.8249H36.3541L36.4595 68.3673L36.4794 68.4094C36.4509 68.4796 36.431 68.5413 36.4168 68.5975C36.4025 68.6677 36.3883 68.7434 36.3741 68.8277M31.7679 141.584C31.6 141.584 31.4861 141.59 31.4291 141.604C31.3722 141.547 31.2868 141.486 31.1758 141.416C31.3437 141.609 31.5629 141.783 31.8305 141.938C32.2661 142.173 32.7244 142.286 33.2056 142.272C33.9799 142.244 34.5863 142.092 35.0218 141.814C35.0788 141.772 35.204 141.489 35.4033 140.961C35.5997 140.447 35.5456 139.684 35.2353 138.667C34.7855 139.681 34.3841 140.315 34.0311 140.565C33.9315 140.635 33.8119 140.717 33.6724 140.815C32.8696 141.3 32.2348 141.559 31.7708 141.587M27.9874 135.919C27.0422 136.531 26.359 136.843 25.9377 136.857C25.8095 136.857 25.6615 136.857 25.4936 136.857C24.5484 136.829 23.8737 136.697 23.4638 136.461C23.3243 136.377 23.2303 136.323 23.1876 136.295C23.1592 136.225 23.1165 136.13 23.0595 136.003C23.1022 136.267 23.1876 136.531 23.3129 136.795C23.552 137.238 23.8766 137.587 24.2865 137.836C24.9498 138.227 25.5391 138.42 26.0629 138.42C26.1199 138.42 26.3789 138.26 26.8458 137.94C27.2956 137.606 27.6771 136.932 27.9874 135.919ZM18.5189 129.771C18.1089 129.62 17.8783 129.536 17.8214 129.522C17.6819 129.451 17.5823 129.37 17.5253 129.272C17.625 130.507 18.2427 131.293 19.3843 131.627C19.8768 131.779 20.4632 131.683 21.1379 131.335C21.8012 130.973 22.0318 130.134 21.8354 128.814C21.2575 129.384 20.8504 129.71 20.6084 129.794C20.059 130.002 19.3615 129.996 18.516 129.774M18.5787 119.188C18.3111 119.66 17.8243 120.064 17.1211 120.398C16.0649 120.912 14.9661 120.974 13.8245 120.586C13.5142 120.474 13.2466 120.351 13.0217 120.21C12.6118 119.974 12.3043 119.688 12.0908 119.357C12.0054 119.219 11.9513 119.084 11.9228 118.961C11.6552 120.045 11.6894 120.906 12.0282 121.546C12.0566 121.617 12.0851 121.678 12.1136 121.734C12.4096 122.234 12.9107 122.616 13.6138 122.88C14.6131 123.214 15.5582 123.158 16.4464 122.714C17.2777 122.271 17.8214 121.611 18.0748 120.735L18.5815 119.214V119.194M28.1781 121.049C27.7966 121.827 27.4607 122.405 27.1646 122.779C26.8686 123.141 26.2622 123.509 25.3484 123.882C24.4175 124.258 23.4325 123.98 22.3905 123.048C22.9684 124.73 23.6232 125.743 24.3548 126.091C25.0324 126.439 25.8209 126.515 26.7234 126.321C27.0194 126.251 27.2927 126.17 27.5489 126.072C28.2265 125.78 28.6564 125.384 28.8386 124.884C29.0777 124.412 29.1261 123.913 28.9866 123.382C28.8471 122.84 28.5766 122.063 28.1838 121.047M36.9349 129.611C36.9918 129.724 37.0402 129.819 37.0829 129.903C37.2509 130.209 37.3363 130.369 37.3363 130.383C37.3932 131.065 37.0487 131.697 36.3 132.281C36.2004 132.351 36.0808 132.433 35.9413 132.531C35.167 133.045 34.5407 133.331 34.0596 133.384C33.9059 133.398 33.8062 133.404 33.7635 133.404C33.6781 133.376 33.5813 133.32 33.4675 133.238C33.6497 133.432 33.8774 133.6 34.145 133.738C34.5948 133.96 35.0674 134.058 35.5599 134.03C36.32 133.96 36.9121 133.772 37.3363 133.468C37.3932 133.426 37.4501 133.393 37.5042 133.365C38.0537 132.907 38.2871 132.253 38.2017 131.405C38.1732 131.085 38.0736 130.765 37.9056 130.445C37.7092 130.153 37.3847 129.875 36.932 129.611M34.2276 127.256C34.1137 127.34 34.0084 127.422 33.9116 127.506C33.3479 127.882 32.6305 128.118 31.7565 128.213C31.321 128.241 31.0733 128.256 31.0164 128.256C30.8626 128.241 30.7345 128.199 30.6349 128.129C31.1986 129.241 32.0725 129.741 33.2568 129.631C33.7778 129.589 34.2162 129.401 34.5663 129.07C34.7343 128.918 34.8766 128.744 34.9877 128.547C35.2837 128.034 35.4033 127.478 35.3464 126.88C35.2894 126.24 35.1841 125.735 35.0304 125.359C34.9307 125.221 34.8482 125.1 34.777 125.005L34.9677 125.965C34.9108 126.408 34.666 126.841 34.2276 127.256ZM34.5037 114.315L34.1649 112.751H34.145C34.1592 113.279 33.9486 113.863 33.5102 114.503C32.8753 115.488 31.9672 116.1 30.7829 116.336C30.4726 116.406 30.1851 116.44 29.9175 116.44C29.4392 116.44 29.0236 116.35 28.6706 116.168C28.5169 116.098 28.3945 116.016 28.3119 115.918C28.6507 116.973 29.1289 117.698 29.7495 118.085C29.8065 118.127 29.8634 118.169 29.9175 118.211C30.4385 118.489 31.0648 118.56 31.7992 118.419C32.8269 118.197 33.6041 117.67 34.1251 116.836C34.6176 116.03 34.7457 115.188 34.5065 114.315M32.6903 105.144C32.6903 105.27 32.696 105.366 32.7102 105.436C32.8924 106.368 33.3223 107.089 33.9998 107.603C34.5065 107.979 35.0417 108.159 35.6054 108.145C35.7335 108.145 35.8673 108.131 36.0068 108.103C37.6978 107.755 38.7483 106.915 39.1554 105.582C39.2835 105.124 39.3233 104.644 39.2835 104.145C38.5661 104.95 37.5441 105.492 36.2203 105.77C36.1634 105.784 36.1207 105.79 36.0922 105.79C34.8795 106.054 34.014 106.073 33.4931 105.851C33.1543 105.725 32.8867 105.489 32.6903 105.144ZM18.1289 112.794C18.1289 113.072 18.163 113.369 18.2342 113.689C18.4306 114.607 18.9032 115.314 19.6491 115.814C20.0448 116.092 20.4803 116.272 20.9586 116.356C21.4938 116.454 22.0717 116.44 22.6923 116.314C23.7627 116.064 24.3691 115.14 24.5086 113.543C24.5655 112.875 24.557 112.224 24.4886 111.584C24.4317 111.682 24.3975 111.763 24.3833 111.834C24.0161 112.653 23.1563 113.203 21.8041 113.481C21.7187 113.495 21.6276 113.515 21.528 113.543C20.7679 113.655 20.0334 113.599 19.3302 113.377C18.8377 113.24 18.4363 113.043 18.126 112.794M29.2001 103.937C29.3282 103.395 29.4108 102.859 29.4535 102.331C29.4962 101.61 29.4819 100.9 29.4108 100.206C29.3823 100.248 29.3396 100.29 29.2827 100.333C28.7475 101.001 28.0557 101.492 27.2102 101.812C26.8714 101.949 26.5184 102.062 26.154 102.146C24.3378 102.536 22.9969 102.508 22.1372 102.062C21.7984 101.896 21.4112 101.61 20.9757 101.208C20.6369 100.874 20.3266 100.582 20.0448 100.333C19.891 100.762 19.8113 101.124 19.8113 101.416C19.8113 101.568 19.8882 102.014 20.0448 102.75C20.3693 104.291 21.0952 105.543 22.2226 106.5C22.5613 106.778 22.9143 107.008 23.2787 107.188C23.7001 107.409 24.1385 107.555 24.5883 107.626C24.9413 107.668 25.2914 107.682 25.6444 107.668C25.8978 107.654 26.1654 107.62 26.4472 107.564C26.601 107.522 26.7575 107.474 26.9113 107.418C28.0671 106.974 28.8272 105.812 29.1944 103.937M37.0573 92.4107C36.7185 92.9806 36.4168 93.4185 36.1492 93.7245C35.5713 94.4459 34.6403 95.1702 33.3593 95.8916C32.4995 96.3492 31.5288 96.2173 30.4413 95.4958C29.8776 95.1337 29.2997 94.6565 28.7076 94.0585C28.6934 94.0585 28.5311 94.0108 28.2208 93.9126C28.5596 95.26 28.9752 96.3295 29.4677 97.1212C29.889 97.8286 30.3616 98.3367 30.8826 98.6426C32.0526 99.2686 33.2226 99.1564 34.3898 98.3086C35.5741 97.4608 36.3285 96.4109 36.6502 95.1618C36.9463 93.9266 37.0801 93.0087 37.0516 92.4107M75.3269 28.4718C75.1874 28.0675 75.0508 27.61 74.9255 27.0962L73.7839 24.1992C74.08 24.0729 74.5668 23.8652 75.2415 23.5732C72.9868 22.8097 71.0852 22.3914 69.5337 22.324C68.6312 23.3936 70.5613 25.4428 75.3241 28.4718H75.3269Z" fill="#E6A92C"/>
<path d="M725.882 46.1004C726.01 46.2126 726.115 46.3586 726.198 46.5383C726.326 46.6646 726.423 46.8162 726.494 46.9958C726.551 47.1474 726.676 47.2597 726.876 47.3299C726.932 47.5096 727.009 47.678 727.109 47.8296C727.18 47.9278 727.263 48.0092 727.362 48.0794C727.433 48.2591 727.502 48.4331 727.573 48.6015C727.644 48.7952 727.712 48.9777 727.784 49.1433C727.923 49.2697 728.051 49.4156 728.165 49.5812C728.208 49.6795 728.251 49.7834 728.293 49.8928C728.518 49.9771 728.652 50.1427 728.695 50.3925C728.723 50.5581 728.8 50.7041 728.928 50.8304C728.971 51.0662 729.013 51.2824 729.056 51.4761C729.142 51.7119 729.295 51.8663 729.52 51.9337C729.577 52.0993 729.674 52.2453 729.816 52.3716C729.93 52.4698 729.93 52.6214 729.816 52.8291C729.959 52.9555 730.084 53.1014 730.198 53.2671C730.255 53.3653 730.303 53.4692 730.346 53.5787C730.46 53.7583 730.619 53.9324 730.833 54.1008C730.904 54.1569 730.961 54.2383 731.001 54.3506C731.183 54.5022 731.345 54.6622 731.487 54.8307C731.559 54.9289 731.607 55.0244 731.635 55.1226C732.017 55.2209 732.003 55.3163 731.593 55.4145C731.521 55.4286 731.465 55.4286 731.425 55.4145C731.339 55.7065 731.348 55.9226 731.445 56.0602C731.544 56.1865 731.627 56.3185 731.698 56.456C731.798 56.5262 731.866 56.6076 731.909 56.7059C731.937 56.7901 731.937 56.8855 731.909 56.9978C732.008 57.068 732.077 57.1494 732.119 57.2476C732.148 57.3178 732.153 57.4076 732.139 57.5199C732.267 57.7417 732.478 57.9242 732.774 58.0617L732.669 58.1235C732.555 58.3312 732.578 58.4631 732.731 58.5193C732.788 58.5474 732.837 58.5895 732.879 58.6456C732.78 58.8533 732.803 58.9937 732.942 59.0611C732.999 59.0751 733.056 59.1172 733.11 59.1874C732.996 59.3951 733.019 59.5355 733.173 59.6029C733.23 59.6169 733.278 59.6506 733.321 59.7067C733.207 59.9144 733.23 60.0548 733.383 60.1222C733.44 60.1362 733.489 60.1699 733.531 60.226C733.432 60.4618 733.454 60.6078 733.594 60.664C733.651 60.678 733.708 60.7201 733.762 60.7903C733.634 60.998 733.657 61.13 733.825 61.1861C733.896 61.2142 733.944 61.2619 733.973 61.3321C733.859 61.5258 733.881 61.6521 734.035 61.7082C734.092 61.7363 734.141 61.784 734.183 61.8542C734.069 62.0619 734.098 62.1939 734.269 62.25C734.311 62.2641 734.36 62.3062 734.417 62.3763C734.289 62.5841 734.311 62.7244 734.479 62.7918C734.536 62.8058 734.585 62.8395 734.627 62.8957C734.528 63.1174 734.55 63.2578 734.69 63.3111C734.747 63.3392 734.795 63.3813 734.838 63.4374C734.724 63.6452 734.724 63.7996 734.838 63.895C734.881 63.9371 734.886 64.0073 734.858 64.1028C734.915 64.1168 734.958 64.1364 734.986 64.1645C735 64.1926 735.02 64.2263 735.049 64.2684C735.063 64.2964 735.091 64.3161 735.134 64.3301C735.034 64.5379 735.043 64.6923 735.154 64.7877C735.197 64.8017 735.202 64.8579 735.174 64.9533C735.231 64.9674 735.274 64.9954 735.302 65.0375C735.316 65.0656 735.331 65.0937 735.345 65.1218C735.373 65.1639 735.416 65.1835 735.473 65.1835C735.473 65.4053 735.53 65.5934 735.641 65.7449C735.698 65.8572 735.675 66.0088 735.578 66.2025C735.621 66.2025 735.655 66.2222 735.684 66.2643C735.712 66.2923 735.732 66.326 735.746 66.3681C735.775 66.3962 735.817 66.4159 735.874 66.4299C735.86 66.7359 735.917 67.0054 736.042 67.244C736.21 67.5219 736.128 67.6201 735.789 67.5359C735.746 67.6875 735.689 67.8082 735.621 67.8896L735.578 67.8054C735.479 67.3759 735.396 66.9296 735.325 66.472C735.268 66.166 735.177 65.8685 735.049 65.5765C734.906 65.4502 734.787 65.3042 734.69 65.1386C734.619 65.0544 734.57 64.9505 734.542 64.827C734.289 64.7287 734.112 64.5828 734.012 64.3891C733.955 64.2908 733.907 64.1813 733.864 64.055C733.751 63.8754 733.591 63.7013 733.378 63.5329C733.306 63.4768 733.258 63.3953 733.23 63.2831C733.047 63.1988 732.928 63.0809 732.871 62.9294C732.828 62.8311 732.766 62.7413 732.68 62.6571C732.552 62.6992 732.441 62.7188 732.341 62.7188C732.284 62.7328 732.227 62.7385 732.173 62.7385C732.088 62.6009 732.011 62.4662 731.94 62.3427C731.883 62.2584 731.92 62.1068 732.045 61.8851C731.835 61.843 731.692 61.7475 731.624 61.5931C731.61 61.5651 731.61 61.523 731.624 61.4668C731.428 61.4107 731.294 61.3293 731.223 61.217C731.208 61.1608 731.208 61.1047 731.223 61.0514C731.026 60.9671 730.821 60.8773 730.61 60.7791C730.625 60.7229 730.625 60.6808 730.61 60.6527C730.582 60.6247 730.554 60.5966 730.525 60.5685C730.511 60.5264 730.505 60.4787 730.505 60.4225C730.309 60.3243 730.109 60.2345 729.913 60.1503C729.927 60.0941 729.919 60.052 729.893 60.0239C729.879 59.9818 729.865 59.9481 729.85 59.9201C729.822 59.892 729.816 59.8499 729.83 59.7937C727.661 57.9326 725.159 56.4953 722.326 55.4791C720.917 54.2299 719.169 53.6039 717.085 53.6039C710.703 51.4228 704.488 50.6367 698.444 51.2487C702.883 54.1654 708.032 56.6244 713.894 58.626C713.498 58.6119 713.202 58.7158 713.006 58.9376C713.641 59.7151 714.435 60.3692 715.394 60.897C715.901 60.7987 716.197 60.8268 716.283 60.9812C716.283 60.9952 716.254 61.0233 716.197 61.0654C717.945 62.5392 719.852 63.9062 721.925 65.1723C718.19 64.2964 714.634 63.9484 711.252 64.1308C711.252 64.1729 711.232 64.2066 711.19 64.2347C711.161 64.2487 711.127 64.2684 711.084 64.2964C711.056 64.3105 711.036 64.3442 711.022 64.4003C709.02 64.3863 707.204 64.6726 705.57 65.2537C705.317 65.5597 704.901 65.6832 704.323 65.6298C704.223 65.6018 704.127 65.5821 704.027 65.5681C704.013 65.6242 703.993 65.6579 703.964 65.672C703.936 65.7 703.902 65.7281 703.859 65.7562C703.831 65.7702 703.811 65.7983 703.796 65.8404C703.572 65.8544 703.352 65.8685 703.142 65.8825C703.127 65.9246 703.099 65.9527 703.056 65.9667C703.042 65.9948 703.022 66.0229 702.994 66.0509C702.951 66.065 702.931 66.0986 702.931 66.1548C702.692 66.1688 702.458 66.1744 702.234 66.1744C702.219 66.2306 702.205 66.2727 702.191 66.3008C702.148 66.3148 702.114 66.3344 702.086 66.3625C702.057 66.3906 702.037 66.4327 702.023 66.4888C701.826 66.4467 701.664 66.4692 701.536 66.5506C701.493 66.5927 701.473 66.6404 701.473 66.6966C701.192 66.7387 700.91 66.7948 700.628 66.8622C700.571 66.8762 700.508 66.9099 700.437 66.9661C700.352 67.0643 700.269 67.1261 700.184 67.1541C700.098 67.1822 700.002 67.1878 699.888 67.1738C699.802 67.3815 699.62 67.4714 699.338 67.4461C699.281 67.4321 699.219 67.4517 699.148 67.5078C698.994 67.6735 698.809 67.7998 698.598 67.884C698.527 67.9121 698.464 67.9458 698.407 67.9879C698.211 68.1254 697.986 68.2321 697.73 68.2995C697.63 68.3135 697.548 68.3697 697.477 68.4651C697.28 68.5774 697.067 68.6953 696.842 68.8188C696.728 68.8609 696.58 68.8806 696.398 68.8806C696.258 69.0181 696.101 69.1023 695.934 69.1304C695.68 69.1585 695.518 69.282 695.447 69.5066C695.265 69.5767 695.088 69.6581 694.917 69.7564C694.832 69.8266 694.749 69.908 694.664 70.0062C694.425 70.0343 694.214 70.082 694.029 70.1522C693.79 70.2224 693.628 70.3684 693.542 70.5901C693.36 70.6743 693.189 70.7642 693.035 70.8624C692.95 70.9186 692.873 70.9887 692.802 71.0701C692.62 71.1403 692.463 71.2442 692.338 71.3817C692.21 71.5081 692.051 71.5614 691.851 71.5474C691.723 71.6737 691.584 71.7691 691.43 71.8393C691.248 71.8955 691.128 72.0134 691.071 72.193C690.889 72.179 690.732 72.2407 690.607 72.3811C690.55 72.4513 690.468 72.499 690.354 72.5271C690.2 72.7067 690.024 72.8752 689.824 73.0268C689.696 73.139 689.542 73.2345 689.36 73.3187C689.221 73.445 689.064 73.5545 688.896 73.6527C688.811 73.7229 688.706 73.7791 688.58 73.8184C688.441 73.9447 688.304 74.0626 688.179 74.1721C688.025 74.2984 687.926 74.5061 687.883 74.7981C693.138 74.6325 698.459 74.2001 703.839 73.5068C703.853 73.4506 703.873 73.4085 703.902 73.3805C703.945 73.3524 703.979 73.3383 704.007 73.3383C704.036 73.3103 704.055 73.2682 704.07 73.212C704.252 73.2541 704.409 73.2317 704.534 73.1503C704.562 73.1082 704.582 73.0604 704.596 73.0043C704.864 73.0183 705.089 73.0099 705.274 72.9846L705.231 73.1306C705.049 73.2148 704.892 73.3187 704.767 73.4422C704.653 73.5545 704.505 73.6022 704.323 73.5882C705.097 74.3096 706.253 74.5538 707.791 74.318C707.805 74.2619 707.825 74.2198 707.853 74.1917C707.882 74.1637 707.91 74.1496 707.939 74.1496C707.967 74.1216 707.987 74.0794 708.001 74.0233C708.044 74.0935 708.092 74.1552 708.149 74.2114C708.192 74.2675 708.226 74.3293 708.255 74.3995C713.581 74.6914 719.161 75.6234 724.994 77.1926C725.065 77.027 725.113 76.9764 725.142 77.0466C725.199 77.1842 725.31 77.2628 725.481 77.2768C725.466 77.3049 725.452 77.3245 725.438 77.3386C725.509 77.3526 725.577 77.3723 725.649 77.4003L725.754 77.5042C725.993 77.5182 726.226 77.5519 726.451 77.6081C726.776 77.6923 727.115 77.7821 727.465 77.8803C727.394 77.8944 727.325 77.914 727.254 77.9421C727.254 77.9982 727.24 78.0404 727.211 78.0684C727.183 78.0684 727.149 78.0825 727.106 78.1105C727.078 78.1526 727.058 78.2004 727.043 78.2565C726.819 78.2846 726.599 78.3042 726.389 78.3183C726.332 78.5681 726.164 78.686 725.882 78.672C725.839 78.672 725.782 78.7 725.714 78.7562C725.575 78.9499 725.404 79.0959 725.207 79.1941C725.122 79.2362 725.059 79.2699 725.017 79.298C724.777 79.3962 724.581 79.5141 724.424 79.6517C724.311 79.764 724.171 79.8313 724.003 79.8594C723.864 79.997 723.716 80.1092 723.559 80.1935C723.391 80.2636 723.283 80.3872 723.243 80.5696C723.075 80.6679 722.927 80.7858 722.799 80.9233C722.685 81.0356 722.537 81.103 722.355 81.1311C722.255 81.2686 722.136 81.3949 721.996 81.5072C721.911 81.5914 721.805 81.6532 721.68 81.6953C721.609 81.9732 721.475 82.1669 721.279 82.2792C721.111 82.3915 720.991 82.5515 720.92 82.7592C720.724 82.7592 720.595 82.849 720.539 83.0315C720.482 83.1438 720.419 83.2392 720.348 83.3235C720.123 83.3515 719.938 83.4554 719.798 83.6351C719.756 83.7052 719.756 83.8512 719.798 84.073C719.741 84.073 719.707 84.0786 719.693 84.0926C719.665 84.1067 719.63 84.1263 719.588 84.1544C719.559 84.1825 719.517 84.1965 719.46 84.1965C719.502 84.4323 719.451 84.5783 719.312 84.6344C719.269 84.6484 719.249 84.7046 719.249 84.8C719.192 84.8 719.144 84.8141 719.101 84.8421C719.072 84.8562 719.044 84.8758 719.015 84.9039C719.001 84.946 718.959 84.96 718.887 84.946C718.816 85.1537 718.759 85.3615 718.719 85.572C718.677 85.7657 718.6 85.9201 718.486 86.0296C716.695 88.5588 715.3 91.5737 714.301 95.0743C713.948 96.3515 713.646 97.699 713.393 99.1166C713.521 99.4787 713.675 99.4984 713.857 99.1784C714.025 99.0941 714.182 98.9706 714.321 98.8022C714.435 98.6647 714.532 98.4962 714.617 98.3025C714.871 98.2745 715.033 98.1369 715.104 97.8871C715.147 97.8169 715.218 97.7551 715.315 97.699C715.4 97.5193 715.511 97.3593 715.653 97.219C715.739 97.1628 715.816 97.0814 715.887 96.9691C716.126 96.9551 716.297 96.8316 716.394 96.593C716.45 96.4554 716.576 96.3431 716.775 96.2589C716.875 96.0933 716.994 95.9389 717.134 95.8013C717.248 95.6638 717.367 95.5178 717.492 95.3634C717.675 95.2792 717.803 95.1697 717.874 95.0294C717.988 94.7936 718.156 94.6757 718.381 94.6757C718.466 94.5634 718.543 94.4595 718.614 94.3641C718.657 94.322 718.714 94.2883 718.782 94.2602C718.839 94.2462 718.896 94.2405 718.95 94.2405C719.064 94.0469 719.203 93.8588 719.371 93.6791C719.499 93.5528 719.645 93.4489 719.815 93.3675C719.887 93.2552 719.949 93.1598 720.006 93.0756C720.063 93.0054 720.126 92.9633 720.197 92.9492C720.254 92.9352 720.311 92.9296 720.365 92.9296C720.464 92.8173 720.57 92.7134 720.681 92.618C720.766 92.5619 720.795 92.4159 720.766 92.1801C720.809 92.1801 720.843 92.1661 720.872 92.138C720.9 92.1099 720.934 92.0959 720.977 92.0959C721.005 92.0538 721.048 92.0397 721.105 92.0538C721.205 91.6495 721.324 91.3183 721.464 91.0544C721.617 90.7063 721.822 90.4846 722.076 90.3863C721.936 90.9983 722.081 91.192 722.52 90.9702C722.634 90.9 722.745 90.8439 722.859 90.8046C722.973 90.653 723.106 90.5323 723.26 90.4509C723.402 90.3526 723.499 90.2291 723.556 90.0747C723.684 90.0186 723.795 89.9624 723.895 89.9091C723.966 89.895 724.029 89.8614 724.086 89.8052C724.1 89.7491 724.12 89.707 724.148 89.6789C724.162 89.6508 724.182 89.6312 724.211 89.6171C724.239 89.5891 724.259 89.547 724.273 89.4908C724.584 89.4347 724.823 89.3112 724.991 89.1147C725.034 89.0866 725.082 89.081 725.139 89.095C725.253 88.9434 725.387 88.8115 725.54 88.6992C725.626 88.629 725.731 88.5673 725.856 88.5111C725.97 88.2332 726.167 88.0311 726.448 87.9076C726.562 87.8655 726.702 87.8374 726.87 87.8234C726.998 87.6858 727.132 87.5454 727.271 87.4079C727.385 87.2956 727.539 87.2479 727.735 87.2619C727.863 87.1244 728.003 86.9896 728.157 86.8661C728.256 86.7679 728.41 86.7201 728.621 86.7201C728.749 86.5826 728.874 86.4366 729.002 86.2822C729.13 86.198 729.29 86.1643 729.489 86.1783C729.617 86.0268 729.756 85.9145 729.91 85.8443C730.078 85.7741 730.235 85.6983 730.374 85.6141C730.488 85.4064 730.656 85.2604 730.881 85.1762C730.938 85.1341 730.995 85.092 731.049 85.0499C731.373 84.9937 731.633 84.9039 731.832 84.7776C731.986 84.6934 732.119 84.6119 732.233 84.5277C732.304 84.4154 732.381 84.3397 732.467 84.2975C732.552 84.2554 732.649 84.2358 732.763 84.2358C732.777 84.1937 732.797 84.1656 732.825 84.1516C732.854 84.1095 732.882 84.0758 732.911 84.0477C732.939 84.0337 732.953 84.0056 732.953 83.9635C733.178 83.9495 733.335 83.8877 733.417 83.7754C733.46 83.7614 733.48 83.7333 733.48 83.6912C733.705 83.6631 733.93 83.6294 734.158 83.5873C734.158 83.5312 734.172 83.4891 734.2 83.461C734.229 83.4329 734.257 83.4133 734.286 83.3992C734.286 83.3712 734.294 83.3291 734.306 83.2729C734.516 83.2729 734.679 83.2252 734.792 83.127C734.821 83.0848 734.835 83.0427 734.835 83.0006C734.949 82.9585 735.046 82.9024 735.131 82.835C735.174 82.7929 735.194 82.7508 735.194 82.7087C735.615 82.6385 736.019 82.5487 736.398 82.4364C736.116 83.2561 735.829 84.0758 735.533 84.8955C735.279 85.6169 735.299 86.1587 735.595 86.5208C735.256 88.076 734.707 89.7378 733.947 91.5008C733.497 92.5563 733.503 93.4377 733.967 94.1479C733.432 95.7452 732.868 97.3649 732.276 99.0043C731.966 99.838 731.846 100.686 731.917 101.548C731.917 102.853 731.601 104.318 730.966 105.944C730.656 106.735 730.34 107.479 730.016 108.173C729.987 108.38 730.001 108.549 730.058 108.672C730.101 108.785 730.135 108.894 730.164 109.006C730.121 110.59 729.7 112.251 728.897 113.986C728.418 115.014 728.256 115.889 728.41 116.611C728.325 118.152 727.861 119.791 727.015 121.529C726.565 122.461 726.451 123.258 726.676 123.926C726.719 124.039 726.762 124.143 726.804 124.238C726.833 124.308 726.861 124.384 726.89 124.468C726.89 124.51 726.884 124.558 726.87 124.614C726.292 126.116 725.671 127.649 725.011 129.221C724.615 130.192 724.629 131.026 725.054 131.722C724.715 133.168 724.165 134.723 723.405 136.39C722.97 137.322 722.856 138.128 723.066 138.807C723.095 138.92 723.129 139.029 723.172 139.141C723.2 139.197 723.249 139.254 723.32 139.307C723.334 139.335 723.368 139.355 723.425 139.369C722.861 140.882 722.278 142.389 721.672 143.891C721.319 144.781 721.142 145.606 721.142 146.37C721.395 146.549 721.663 146.723 721.945 146.892C722.073 146.906 722.155 146.92 722.198 146.934C724.31 147.56 726.918 148.107 730.018 148.582C730.09 148.568 730.166 148.562 730.252 148.562C730.323 148.478 730.406 148.411 730.505 148.354C730.591 148.326 730.687 148.326 730.801 148.354C731.197 146.827 731.408 145.194 731.436 143.456C731.45 142.622 731.493 141.76 731.564 140.87C731.889 140.899 732.142 140.795 732.324 140.559C732.41 140.447 732.478 140.287 732.535 140.079C732.578 138.577 732.64 137.022 732.726 135.411C732.783 134.563 732.931 133.833 733.17 133.221C733.284 133.193 733.395 133.151 733.509 133.095C733.58 133.067 733.642 133.033 733.699 132.991C733.981 131.337 734.163 129.746 734.249 128.219C734.306 127.371 734.363 126.517 734.417 125.656C735.348 124.432 735.735 122.674 735.578 120.384C735.493 119.384 735.698 118.604 736.19 118.048C736.725 116.659 736.987 114.986 736.973 113.026C736.973 112.08 737.135 111.235 737.46 110.483C737.642 110.483 737.776 110.407 737.861 110.253C737.932 110.154 738.001 110.059 738.072 109.961C738.1 108.487 738.206 106.946 738.388 105.334C738.473 104.585 738.579 103.785 738.704 102.937C739.535 101.618 739.931 99.9167 739.888 97.8309C739.874 96.8849 740.016 96.0399 740.31 95.2876C740.973 93.9121 741.337 92.3008 741.408 90.4537C741.437 89.6059 741.485 88.7525 741.556 87.8907C742.035 87.7925 742.282 87.363 742.297 86.5994C742.297 86.0296 742.473 85.7376 742.826 85.7236C742.912 85.9032 742.994 86.0717 743.08 86.2233C743.151 86.3608 743.29 86.4591 743.501 86.5152C743.501 86.6949 743.558 86.8408 743.669 86.9531C743.768 87.0233 743.823 87.1131 743.837 87.2254C744.119 87.3517 744.344 87.523 744.514 87.7476C744.6 87.8598 744.634 88.0114 744.62 88.2051C744.916 88.0255 745.055 88.1013 745.041 88.4353C745.027 88.6009 745.055 88.775 745.126 88.9575C745.269 89.1371 745.414 89.3252 745.57 89.5189C745.642 89.6312 745.767 89.7126 745.952 89.7687C746.009 89.9624 746.106 90.1168 746.248 90.2263C746.376 90.3526 746.43 90.5098 746.416 90.7063C746.544 90.8326 746.669 90.9646 746.797 91.1021C746.897 91.2285 746.926 91.3941 746.883 91.6018C747.022 91.7394 747.131 91.8938 747.199 92.0594C747.242 92.211 747.353 92.3233 747.538 92.3934C747.523 92.5591 747.586 92.705 747.728 92.8314C747.8 92.9156 747.848 93.0054 747.876 93.1036C748.101 93.1879 748.235 93.3535 748.278 93.6033C748.306 93.7689 748.383 93.9149 748.511 94.0412C748.554 94.2911 748.602 94.5072 748.659 94.6869C748.73 94.9087 748.884 95.063 749.123 95.1445C749.18 95.3241 749.271 95.4701 749.397 95.5824C749.525 95.6666 749.53 95.8182 749.417 96.0399C749.545 96.1775 749.627 96.3179 749.67 96.4554C749.727 96.6351 749.798 96.7951 749.881 96.9354C750.009 97.073 750.1 97.219 750.154 97.3734C750.197 97.553 750.259 97.7074 750.345 97.8309C750.444 97.9151 750.513 97.9966 750.555 98.0808C750.584 98.179 750.589 98.2745 750.575 98.3727C750.675 98.4569 750.743 98.5468 750.786 98.645C750.814 98.7152 750.814 98.7966 750.786 98.8948C750.885 99.0212 751.034 99.0885 751.23 99.1026C751.287 99.1026 751.35 99.0745 751.421 99.0184C751.364 99.2822 751.378 99.518 751.463 99.7258C751.492 99.81 751.449 99.956 751.335 100.164C751.392 100.178 751.435 100.192 751.463 100.206C751.463 100.234 751.478 100.268 751.506 100.31C751.52 100.338 751.554 100.357 751.611 100.371C751.54 100.663 751.554 100.885 751.654 101.04C751.74 101.152 751.822 101.275 751.907 101.416C752.047 101.553 752.195 101.637 752.352 101.666C752.451 101.68 752.528 101.59 752.585 101.393C752.853 101.601 752.986 102.115 752.986 102.934C753.001 103.339 752.986 103.768 752.944 104.226C753.001 104.24 753.043 104.268 753.072 104.31C753.086 104.338 753.106 104.366 753.134 104.394C753.149 104.422 753.183 104.436 753.24 104.436C753.126 104.658 753.126 104.812 753.24 104.894C753.282 104.936 753.288 105.006 753.26 105.101C753.317 105.116 753.359 105.135 753.388 105.163C753.402 105.205 753.416 105.239 753.431 105.267C753.459 105.281 753.502 105.295 753.559 105.309C753.573 105.545 753.63 105.733 753.727 105.871C753.798 105.969 753.784 106.12 753.684 106.328C753.741 106.342 753.775 106.362 753.789 106.39C753.818 106.432 753.832 106.466 753.832 106.494C753.86 106.522 753.903 106.536 753.96 106.536C753.903 106.842 753.926 107.092 754.023 107.285C754.122 107.465 754.171 107.667 754.171 107.889C754.228 107.903 754.262 107.923 754.276 107.951C754.305 107.993 754.319 108.021 754.319 108.035C754.347 108.063 754.39 108.083 754.447 108.097C754.672 109.124 754.925 110.146 755.207 111.159C755.375 111.715 755.503 112.291 755.588 112.889C755.688 113.265 755.842 113.298 756.052 112.992C757.237 109.784 757.948 106.455 758.188 103.01C758.273 101.747 758.307 100.509 758.293 99.3019C758.236 99.2878 758.202 99.2682 758.188 99.2401C758.173 99.198 758.153 99.1643 758.125 99.1363C758.096 99.0941 758.054 99.0745 757.997 99.0745C758.193 98.1032 758.202 97.2695 758.017 96.5733C757.903 96.0736 757.798 95.588 757.701 95.1136C757.644 95.0995 757.601 95.0799 757.573 95.0518C757.558 95.0097 757.538 94.976 757.51 94.948C757.482 94.9199 757.447 94.9058 757.405 94.9058C757.433 94.4904 757.362 94.1198 757.194 93.8026C757.109 93.6089 757.089 93.3507 757.131 93.0307C757.074 93.0307 757.04 93.011 757.026 92.9689C756.998 92.9408 756.983 92.9212 756.983 92.9071C756.955 92.865 756.912 92.837 756.855 92.8229C756.841 92.6152 756.807 92.4075 756.75 92.1969C756.707 92.0987 756.645 92.0173 756.559 91.9471C756.531 91.6271 756.482 91.3632 756.411 91.1555C756.354 90.9197 756.215 90.7653 755.99 90.6979C755.947 90.5856 755.913 90.4761 755.884 90.3638C755.842 90.2796 755.799 90.2179 755.756 90.1758C757.291 91.1892 758.78 92.2447 760.214 93.3423C760.2 93.3984 760.2 93.4405 760.214 93.4686C760.243 93.5107 760.263 93.5444 760.277 93.5724C760.291 93.6005 760.291 93.6426 760.277 93.6988C760.687 93.8504 761.003 94.0469 761.228 94.2827C761.285 94.3388 761.37 94.3809 761.481 94.409C761.467 94.4651 761.476 94.5072 761.501 94.5353C761.501 94.5774 761.515 94.6111 761.544 94.6392C761.572 94.6672 761.578 94.7093 761.564 94.7655C761.846 94.9311 762.142 95.0995 762.452 95.2652C762.438 95.3213 762.432 95.3634 762.432 95.3915C762.461 95.4336 762.489 95.4673 762.518 95.4954C762.532 95.5234 762.532 95.5571 762.518 95.5992C762.728 95.7115 762.939 95.8154 763.152 95.9108C763.138 95.967 763.147 96.0091 763.172 96.0371C763.172 96.0652 763.187 96.0933 763.215 96.1214C763.243 96.1494 763.249 96.1915 763.235 96.2477C763.431 96.3459 763.631 96.4414 763.827 96.5396C763.813 96.5958 763.813 96.6379 763.827 96.6659C763.856 96.694 763.875 96.7277 763.89 96.7698C763.918 96.7979 763.924 96.8316 763.91 96.8737C764.106 96.9719 764.311 97.0674 764.522 97.1656C764.507 97.2218 764.507 97.2639 764.522 97.2919C764.55 97.32 764.579 97.3481 764.607 97.3762C764.607 97.4183 764.601 97.466 764.587 97.5221C764.798 97.5783 764.94 97.6681 765.008 97.7944C765.023 97.8225 765.023 97.8562 765.008 97.8983C765.205 97.9685 765.339 98.0723 765.41 98.2099C765.438 98.238 765.444 98.2801 765.43 98.3362C765.612 98.3783 765.74 98.4681 765.811 98.6085C765.84 98.6506 765.845 98.6983 765.831 98.7545C765.931 98.7685 766.013 98.8106 766.085 98.8808C766.113 98.8948 766.127 98.9229 766.127 98.965C766.324 98.9931 766.486 98.9791 766.614 98.9229C766.685 98.8668 766.754 98.819 766.825 98.7769C766.782 98.9847 766.776 99.1868 766.805 99.3805C766.819 99.4787 766.876 99.5601 766.973 99.6303C767.141 99.8802 767.331 100.096 767.542 100.276C767.696 100.388 767.815 100.506 767.901 100.63C767.929 100.756 767.986 100.851 768.069 100.922C768.126 100.978 768.203 101.02 768.302 101.048C768.288 101.09 768.297 101.124 768.322 101.152C768.336 101.194 768.356 101.228 768.385 101.256C768.413 101.284 768.419 101.326 768.405 101.382C768.601 101.438 768.735 101.534 768.806 101.674C768.82 101.702 768.826 101.744 768.826 101.8C768.954 101.73 769.114 101.688 769.313 101.674C769.327 101.674 769.341 101.646 769.356 101.59C769.509 101.27 769.546 101.028 769.461 100.86C769.404 100.748 769.398 100.616 769.441 100.464C769.609 100.492 769.666 100.616 769.609 100.84C769.595 100.882 769.595 100.938 769.609 101.006C769.623 101.048 769.629 101.09 769.629 101.132C769.686 101.146 769.714 101.166 769.714 101.194C769.743 101.236 769.763 101.27 769.777 101.298C769.805 101.34 769.848 101.36 769.905 101.36C769.791 101.595 769.805 101.736 769.948 101.775C770.019 101.803 770.067 101.837 770.096 101.879C770.025 102.171 770.039 102.393 770.138 102.547C770.238 102.685 770.321 102.811 770.392 102.923C770.617 103.021 770.759 103.181 770.813 103.403C770.856 103.515 770.87 103.661 770.856 103.841C770.995 103.979 771.123 104.125 771.237 104.279C771.294 104.377 771.337 104.487 771.365 104.613C771.494 104.793 771.653 104.961 771.852 105.113C771.938 105.197 771.995 105.287 772.02 105.385C772.148 105.579 772.316 105.753 772.527 105.907C772.598 105.991 772.646 106.081 772.675 106.179C772.803 106.373 772.943 106.561 773.096 106.741C773.196 106.839 773.33 106.921 773.498 106.991C773.569 107.17 773.666 107.297 773.794 107.367C774.033 107.518 774.147 107.707 774.133 107.928C774.232 108.013 774.323 108.088 774.409 108.159C774.451 108.229 774.48 108.29 774.494 108.347C774.508 108.403 774.508 108.459 774.494 108.512C774.79 108.639 775.009 108.804 775.149 109.012C775.248 109.138 775.297 109.29 775.297 109.469C775.493 109.607 775.664 109.742 775.804 109.865C776 110.017 776.085 110.213 776.057 110.449C776.196 110.587 776.325 110.733 776.438 110.887C776.51 110.985 776.552 111.089 776.567 111.199C776.706 111.336 776.834 111.482 776.948 111.637C777.005 111.735 777.048 111.839 777.076 111.948C777.216 112.142 777.358 112.33 777.497 112.51C777.583 112.622 777.717 112.712 777.899 112.782C777.97 112.948 778.067 113.094 778.195 113.22C778.323 113.346 778.377 113.503 778.363 113.7C778.462 113.77 778.554 113.846 778.639 113.93C778.682 113.986 778.716 114.042 778.744 114.096C778.759 114.138 778.759 114.186 778.744 114.242C778.983 114.534 779.245 114.59 779.527 114.407C779.331 110.407 778.753 106.62 777.793 103.049C777.497 101.952 777.25 100.792 777.053 99.5686C776.996 99.5545 776.962 99.5349 776.948 99.5068C776.92 99.4928 776.891 99.4647 776.863 99.4226C776.848 99.3945 776.82 99.3749 776.777 99.3608C776.877 99.1531 776.868 98.9987 776.757 98.9033C776.715 98.8892 776.709 98.8275 776.737 98.7152C776.68 98.7011 776.638 98.6731 776.609 98.631C776.595 98.6029 776.575 98.5748 776.547 98.5467C776.532 98.5046 776.498 98.485 776.441 98.485C776.569 98.2773 776.575 98.1229 776.461 98.0274C776.404 97.9994 776.39 97.9292 776.419 97.8197C776.376 97.8057 776.342 97.786 776.313 97.7579C776.299 97.7158 776.279 97.6878 776.251 97.6737C776.222 97.6457 776.179 97.626 776.122 97.612C776.251 97.4042 776.236 97.2639 776.08 97.1965C776.009 97.1684 775.96 97.1263 775.932 97.0702C776.003 96.7923 775.989 96.5761 775.889 96.4245C775.818 96.2982 775.735 96.1747 775.636 96.0484C775.496 95.7845 775.234 95.5964 774.853 95.4869L774.958 95.4027C775.14 95.2904 775.197 95.1304 775.126 94.9227C775.083 94.7571 774.972 94.6392 774.787 94.569C774.787 94.3472 774.753 94.1535 774.682 93.9851C774.611 93.8335 774.491 93.7268 774.323 93.6735C774.266 93.4798 774.195 93.2973 774.113 93.1317C774.056 92.938 773.984 92.7556 773.902 92.5899C773.762 92.4524 773.663 92.3064 773.606 92.152C773.535 91.9724 773.409 91.8545 773.224 91.7983C773.239 91.6187 773.176 91.4727 773.034 91.3604C772.977 91.2902 772.928 91.2004 772.886 91.0881C772.575 90.8804 772.365 90.6165 772.251 90.2965C772.208 90.1842 772.174 90.0663 772.145 89.9428C772.006 89.8164 771.864 89.6845 771.724 89.547C771.624 89.4768 771.533 89.401 771.451 89.3168C771.465 89.1371 771.402 88.9827 771.26 88.8592C771.189 88.8031 771.14 88.7132 771.112 88.5869C770.916 88.4494 770.739 88.2893 770.583 88.1069C770.526 88.0227 770.483 87.9272 770.454 87.8149C770.201 87.6633 769.962 87.4893 769.737 87.2928C769.694 87.2507 769.646 87.203 769.589 87.1468C769.518 86.9251 769.393 86.751 769.208 86.6247C769.108 86.5685 769.003 86.5264 768.891 86.4984C768.906 86.4422 768.897 86.4001 768.872 86.372C768.872 86.358 768.857 86.3299 768.829 86.2878C768.8 86.2598 768.795 86.2176 768.809 86.1615C768.613 86.0773 768.413 85.9875 768.217 85.8892C768.231 85.8331 768.223 85.7853 768.197 85.7432C768.168 85.7152 768.149 85.6871 768.134 85.659C768.12 85.631 768.12 85.5888 768.134 85.5327C766.586 84.2133 764.866 83.2112 762.979 82.5318C760.892 81.1704 758.956 80.4489 757.166 80.3647C755.079 79.559 752.867 79.1015 750.53 78.9892C752.389 78.905 754.313 78.919 756.3 79.0313C761.134 79.9352 765.931 80.9149 770.694 81.9704C770.89 82.0406 771.024 82.1444 771.095 82.282C771.109 82.3101 771.115 82.3438 771.115 82.3859C772.228 82.7901 773.159 83.0399 773.905 83.1354C774.087 83.0091 774.101 82.8771 773.947 82.7396C773.808 82.6132 773.742 82.4673 773.757 82.3016C773.617 82.0658 773.686 82.0574 773.967 82.282C774.039 82.3381 774.121 82.3718 774.221 82.3859C774.206 82.428 774.215 82.4701 774.241 82.5122C774.255 82.5403 774.275 82.5739 774.303 82.616C774.332 82.6441 774.337 82.6778 774.323 82.7199C778.508 85.2351 782.755 87.2507 787.068 88.7638C787.026 88.528 786.983 88.3202 786.94 88.1378C786.869 87.902 786.715 87.7476 786.476 87.6802C786.405 87.5005 786.323 87.3321 786.223 87.1805C786.152 87.0823 786.075 86.9924 785.989 86.9082C785.918 86.7426 785.813 86.5966 785.673 86.4703C785.56 86.344 785.505 86.1924 785.505 86.0127C785.377 85.8752 785.266 85.7292 785.167 85.5748C785.096 85.4766 785.047 85.3671 785.019 85.2408C784.765 85.1425 784.603 84.9909 784.532 84.7832C784.475 84.6176 784.364 84.5053 784.193 84.4491C784.122 84.2695 784.031 84.0954 783.92 83.927C783.863 83.8428 783.786 83.7614 783.686 83.6772C783.615 83.4554 783.481 83.2814 783.285 83.155C783.131 83.0568 783.06 82.9192 783.074 82.7396C782.935 82.602 782.807 82.4476 782.693 82.282C782.593 82.1304 782.445 82.0041 782.249 81.9058C782.163 81.7542 782.067 81.6139 781.953 81.4904C781.81 81.3641 781.685 81.2461 781.571 81.1367C781.5 80.9149 781.38 80.7212 781.212 80.5528C781.184 80.4966 781.15 80.4405 781.107 80.3872C780.811 80.2496 780.578 80.0896 780.41 79.9071C780.31 79.7808 780.213 79.6489 780.114 79.5113C780.071 79.4131 780.014 79.3232 779.946 79.239C779.889 79.1688 779.812 79.1267 779.712 79.1127C779.726 79.0706 779.721 79.0285 779.692 78.9864C779.664 78.9583 779.644 78.9302 779.63 78.9022C779.601 78.8601 779.596 78.8179 779.61 78.7758C779.413 78.7197 779.285 78.6299 779.228 78.5035C779.2 78.4474 779.194 78.3997 779.208 78.3576C779.012 78.2593 778.813 78.1639 778.616 78.0656C778.63 78.0095 778.622 77.9758 778.596 77.9618C778.568 77.9337 778.548 77.9 778.534 77.8579C778.505 77.8298 778.499 77.7877 778.514 77.7316C778.317 77.6474 778.112 77.5519 777.902 77.4396C777.916 77.3835 777.916 77.3414 777.902 77.3133C777.887 77.2993 777.868 77.2712 777.839 77.2291C777.825 77.201 777.825 77.1589 777.839 77.1028C777.247 76.7968 776.754 76.4487 776.359 76.0613C776.273 75.9911 776.182 75.9434 776.085 75.9153C775.917 76.1932 775.823 76.1792 775.809 75.8732C775.809 75.7609 775.818 75.6515 775.829 75.5392C774.577 74.7475 773.315 73.9475 772.046 73.1418C771.989 73.1278 771.946 73.1278 771.918 73.1418C771.889 73.1699 771.861 73.198 771.832 73.2261C771.79 73.2401 771.741 73.2401 771.684 73.2261C769.091 71.5305 765.766 70.635 761.709 70.5368C761.695 70.5929 761.681 70.6266 761.666 70.6407C761.624 70.6547 761.589 70.6743 761.561 70.7024C761.518 70.7164 761.49 70.7501 761.476 70.8063C760.32 70.5705 759.736 70.4526 759.722 70.4526C759.876 70.3263 760.032 70.2505 760.186 70.2224C760.454 70.1943 760.622 70.0708 760.693 69.8462C760.889 69.7199 761.123 69.6385 761.39 69.5964C761.461 69.5964 761.533 69.5767 761.601 69.5346C761.672 69.4504 761.749 69.3606 761.834 69.2623C761.891 69.2202 761.948 69.1781 762.002 69.136C762.227 68.9985 762.518 68.9479 762.868 68.99C762.939 68.7542 763.121 68.6504 763.417 68.6784C763.474 68.6925 763.531 68.6784 763.585 68.6363C763.67 68.5521 763.753 68.4904 763.838 68.4483C763.938 68.4061 764.035 68.4005 764.134 68.4286C764.22 68.2068 764.396 68.1086 764.664 68.1367C764.735 68.1367 764.798 68.1226 764.855 68.0945C764.897 67.8868 764.86 67.7465 764.749 67.6791C764.621 67.5949 764.482 67.5415 764.328 67.5135C765.384 67.3057 766.463 67.1373 767.562 67.0138C767.576 66.9576 767.596 66.9155 767.625 66.8875C767.653 66.8734 767.687 66.8538 767.73 66.8257C767.759 66.8117 767.778 66.7836 767.793 66.7415C767.989 66.7696 768.146 66.7359 768.257 66.6376C768.285 66.6096 768.305 66.5674 768.319 66.5113C768.544 66.4973 768.769 66.4973 768.997 66.5113C768.997 66.4552 769.017 66.4131 769.059 66.385C769.088 66.3569 769.122 66.3373 769.165 66.3232C769.193 66.3092 769.213 66.2755 769.227 66.2194C769.424 66.2334 769.586 66.1997 769.714 66.1155C769.728 66.1015 769.743 66.0678 769.757 66.0116C769.982 65.9976 770.201 65.9836 770.412 65.9695C770.426 65.9274 770.454 65.8937 770.497 65.8657C770.526 65.8516 770.554 65.832 770.583 65.8039C770.625 65.7899 770.645 65.7562 770.645 65.7C770.856 65.686 771.075 65.6804 771.3 65.6804C771.314 65.6242 771.334 65.5821 771.363 65.5541C771.405 65.54 771.439 65.5204 771.468 65.4923C771.496 65.4642 771.516 65.4221 771.53 65.366C771.755 65.38 771.98 65.38 772.208 65.366C772.222 65.3098 772.242 65.2677 772.271 65.2397C772.299 65.2256 772.333 65.2116 772.376 65.1975C772.404 65.1695 772.424 65.1274 772.439 65.0712C772.664 65.0712 772.874 65.0656 773.074 65.0516C773.088 64.9954 773.116 64.9617 773.159 64.9477C773.187 64.9196 773.216 64.9 773.244 64.8859C773.287 64.8719 773.307 64.8382 773.307 64.7821C773.728 64.7961 774.09 64.7344 774.386 64.594C774.485 64.5659 774.582 64.5603 774.682 64.5744C774.696 64.5182 774.716 64.4845 774.745 64.4705C774.787 64.4424 774.821 64.4228 774.85 64.4087C774.878 64.3807 774.898 64.3386 774.913 64.2824C775.59 64.1449 776.265 63.9989 776.942 63.8445C777.028 63.8305 777.105 63.8024 777.176 63.7603C771.963 62.2051 767.01 61.9047 762.318 62.8648C762.347 63.1006 762.313 63.1623 762.213 63.0529C762.17 62.9967 762.156 62.9209 762.17 62.8227C760.593 62.8929 759.198 63.2606 757.985 63.9259C757.632 63.8417 757.302 63.822 756.992 63.8641C756.978 63.9203 756.958 63.9624 756.929 63.9905C756.901 64.0045 756.872 64.0185 756.844 64.0326C756.815 64.0606 756.795 64.1027 756.781 64.1589C756.585 64.1308 756.422 64.1589 756.294 64.2431C756.266 64.2712 756.246 64.3133 756.232 64.3694C756.007 64.3835 755.788 64.3891 755.577 64.3891C755.492 64.6108 755.309 64.7091 755.028 64.681C754.971 64.667 754.914 64.6866 754.86 64.7428C754.692 64.9084 754.501 65.0347 754.29 65.1189C754.205 65.147 754.128 65.1807 754.057 65.2228C753.832 65.293 753.621 65.3744 753.422 65.4726C753.322 65.5288 753.231 65.6046 753.149 65.7028C752.967 65.8151 752.767 65.933 752.557 66.0565C752.417 66.0986 752.26 66.1183 752.092 66.1183C751.953 66.2558 751.796 66.3625 751.628 66.4299C751.461 66.472 751.341 66.5815 751.27 66.7639C751.102 66.8482 750.94 66.938 750.783 67.0362C750.683 67.1064 750.592 67.1822 750.51 67.2664C750.328 67.3366 750.199 67.4405 750.128 67.578C749.989 67.7858 749.798 67.884 749.559 67.87C749.405 67.9823 749.243 68.0917 749.072 68.204C748.918 68.3023 748.804 68.4679 748.733 68.7037C748.48 68.6756 748.298 68.7879 748.184 69.0378C748.141 69.1079 748.07 69.1641 747.973 69.2034C748.127 68.8132 748.332 68.4819 748.585 68.204C748.796 67.9823 748.819 67.7605 748.648 67.5359C750 65.9386 751.318 64.2993 752.599 62.6178C753.177 61.8823 753.732 61.144 754.267 60.4085C754.324 60.4085 754.373 60.4029 754.416 60.3889C754.444 60.3608 754.464 60.3327 754.478 60.3046C754.521 60.2906 754.569 60.2906 754.626 60.3046C754.697 59.9987 754.817 59.7769 754.985 59.6365C755.139 59.5102 755.261 59.3446 755.344 59.1369C755.401 59.1509 755.449 59.1509 755.492 59.1369C755.52 59.1088 755.549 59.0807 755.577 59.0526C755.62 59.0386 755.668 59.033 755.725 59.033C755.697 58.8253 755.754 58.6933 755.893 58.6372C755.936 58.6232 755.97 58.567 755.998 58.4716C756.055 58.4856 756.098 58.4772 756.126 58.4519C756.169 58.4379 756.203 58.4182 756.232 58.3902C756.274 58.3621 756.317 58.3565 756.36 58.3705C756.331 58.1347 756.388 57.9943 756.528 57.955C756.585 57.955 756.627 57.8989 756.656 57.7894C756.713 57.8035 756.747 57.795 756.761 57.7698C756.79 57.7417 756.824 57.722 756.867 57.708C756.895 57.6799 756.938 57.6743 756.995 57.6884C757.08 57.5087 757.205 57.3683 757.376 57.2729C757.558 57.1606 757.538 57.0511 757.314 56.9388C757.299 56.5908 757.476 56.5234 757.843 56.7311C757.829 56.5093 757.906 56.3971 758.076 56.3971C758.133 56.3971 758.196 56.3774 758.267 56.3353C758.253 56.0995 758.338 55.9872 758.521 56.0013C758.563 55.9872 758.612 55.9591 758.669 55.917C758.669 55.6953 758.746 55.583 758.902 55.583C758.973 55.583 759.036 55.5633 759.093 55.5212C759.136 55.3135 759.221 55.1675 759.346 55.0833C759.432 54.9991 759.514 54.9093 759.6 54.811C759.064 54.6594 758.936 54.4713 759.218 54.2496C759.486 54.2496 759.691 54.1654 759.83 53.9997C759.944 53.8622 760.098 53.7976 760.294 53.8117C760.434 53.6853 760.59 53.5899 760.758 53.5197C760.901 53.4495 761.012 53.326 761.097 53.1435C761.265 53.1576 761.407 53.1014 761.518 52.9779C761.604 52.9077 761.701 52.86 761.814 52.832C761.9 52.6383 762.019 52.4783 762.173 52.3519C762.287 52.2256 762.435 52.1723 762.617 52.1863C762.646 51.9084 762.745 51.7147 762.913 51.6024C763.041 51.5042 763.161 51.4227 763.272 51.3526C763.525 51.3526 763.716 51.2347 763.841 50.9989C763.87 50.9287 763.941 50.881 764.052 50.8529C764.152 50.6592 764.277 50.5132 764.433 50.415C764.533 50.3448 764.61 50.2634 764.667 50.1651C764.92 50.1932 765.117 50.0893 765.259 49.8535C765.344 49.7272 765.47 49.6234 765.64 49.5419C765.669 49.264 765.78 49.076 765.979 48.9805C766.107 48.9244 766.261 48.8963 766.443 48.8963C766.486 48.6043 766.591 48.4107 766.759 48.3124C766.887 48.2563 767.047 48.2366 767.246 48.2506C767.275 47.9587 767.38 47.7706 767.562 47.6892C767.69 47.619 767.85 47.5853 768.049 47.5853C768.077 47.3215 768.183 47.1418 768.365 47.0436C768.493 46.9734 768.647 46.9397 768.829 46.9397C768.9 46.7881 769.011 46.6814 769.168 46.6281C769.282 46.586 769.373 46.5242 769.444 46.44C769.626 46.0498 769.435 45.8982 768.874 45.9825C767.155 46.3979 765.458 46.8443 763.781 47.3159C763.682 47.3439 763.577 47.3439 763.466 47.3159C763.466 47.358 763.451 47.3917 763.423 47.4197C763.394 47.4478 763.36 47.4674 763.317 47.4815C763.289 47.5096 763.269 47.5517 763.255 47.6078C762.916 47.6359 762.577 47.6696 762.241 47.7117C762.227 47.7538 762.207 47.7875 762.179 47.8155C762.15 47.8436 762.116 47.8633 762.073 47.8773C762.045 47.9054 762.025 47.9475 762.011 48.0036C761.8 48.0177 761.575 48.0233 761.333 48.0233C761.333 48.0794 761.319 48.1131 761.291 48.1271C761.262 48.1412 761.234 48.1552 761.205 48.1692C761.162 48.1973 761.134 48.2394 761.12 48.2956C760.909 48.2675 760.752 48.3012 760.656 48.3994C760.613 48.4135 760.585 48.4471 760.57 48.5033C760.374 48.4752 760.217 48.5089 760.106 48.6072C760.078 48.6352 760.058 48.6773 760.044 48.7335C759.847 48.6914 759.685 48.7194 759.557 48.8177C759.528 48.8458 759.508 48.8879 759.494 48.944C759.212 49.0002 758.939 49.0619 758.669 49.1321C758.597 49.1602 758.529 49.1939 758.458 49.236C758.29 49.3876 758.099 49.5139 757.889 49.6121C757.817 49.6402 757.755 49.6683 757.698 49.6963C757.459 49.7665 757.225 49.8339 757 49.9041C756.929 49.9462 756.861 49.9883 756.79 50.0304C756.65 50.196 756.459 50.3027 756.22 50.342C756.038 50.356 755.919 50.4543 755.862 50.6339C755.748 50.662 755.651 50.7097 755.566 50.7799C755.494 50.8501 755.452 50.9399 755.437 51.0522C755.423 51.1083 755.409 51.1561 755.395 51.1982C754.973 51.0859 754.635 51.128 754.381 51.3245C754.239 51.4621 754.094 51.5603 753.937 51.6164C753.769 51.6866 753.655 51.7961 753.598 51.9505C753.402 51.9505 753.245 52.0123 753.134 52.1386C753.078 52.2228 752.986 52.2761 752.861 52.3042C752.762 52.4979 752.636 52.6523 752.48 52.7618C752.326 52.86 752.178 52.9779 752.036 53.1155C751.782 53.0874 751.606 53.2137 751.506 53.4916C751.421 53.6432 751.273 53.7218 751.062 53.7218C750.922 53.8594 750.8 54.0053 750.703 54.1597C750.589 54.3113 750.45 54.3899 750.282 54.3899C750.142 54.4601 750.02 54.578 749.923 54.7436C749.881 54.8279 749.804 54.8812 749.69 54.9093C749.69 55.1451 749.604 55.2573 749.436 55.2433C749.38 55.2573 749.317 55.277 749.246 55.3051C749.274 55.5409 749.197 55.6588 749.012 55.6588C748.955 55.6588 748.893 55.6728 748.822 55.7009C748.85 55.9507 748.779 56.0686 748.611 56.0546C748.54 56.0546 748.477 56.0742 748.42 56.1163C747.743 57.1578 747.031 58.1179 746.285 58.9937C745.835 59.5355 745.488 60.2092 745.249 61.0149C745.192 61.0008 745.143 61.0008 745.101 61.0149C745.072 61.0429 745.044 61.071 745.015 61.0991C744.987 61.0991 744.944 61.0935 744.887 61.0794C744.534 61.9693 744.184 62.8227 743.831 63.6424C743.535 64.3245 743.478 64.9056 743.663 65.394C743.495 65.4221 743.324 65.4418 743.156 65.4558C743.171 65.6916 743.108 65.832 742.966 65.8713C742.909 65.8853 742.875 65.9414 742.86 66.0369C742.761 65.9106 742.65 65.7927 742.522 65.6832C742.479 65.6411 742.473 65.5709 742.502 65.4755C742.684 64.8916 742.641 64.2515 742.374 63.5582C742.191 63.168 742.063 62.7441 741.992 62.2865C741.935 62.2725 741.901 62.2528 741.887 62.2248C741.872 62.1967 741.853 62.1686 741.824 62.1405C741.81 62.0984 741.776 62.0704 741.719 62.0563C741.833 61.8486 741.833 61.7026 741.719 61.6184C741.676 61.5763 741.67 61.5061 741.699 61.4107C741.642 61.3966 741.599 61.377 741.571 61.3489C741.556 61.3068 741.542 61.2731 741.528 61.245C741.514 61.217 741.48 61.1973 741.423 61.1833C741.522 60.9896 741.494 60.8577 741.337 60.7875C741.28 60.7594 741.232 60.7173 741.189 60.6612C741.26 60.3832 741.246 60.1615 741.147 59.9931C741.075 59.8667 740.993 59.7432 740.893 59.6169C740.683 59.5467 740.54 59.3951 740.472 59.1593C740.443 59.033 740.429 58.887 740.429 58.7214C740.301 58.5698 740.233 58.4238 740.218 58.2835C740.176 58.0196 740.042 57.8456 739.817 57.7613C739.831 57.5957 739.769 57.4497 739.626 57.3234C739.569 57.2532 739.521 57.1578 739.478 57.0315C739.211 56.9473 739.02 56.7873 738.909 56.5515C738.852 56.4392 738.832 56.2932 738.846 56.1135C738.718 55.9619 738.621 55.8076 738.55 55.656C738.479 55.4903 738.36 55.3781 738.192 55.3219C738.192 55.1282 738.129 54.9738 738.001 54.8643C737.93 54.8082 737.881 54.7184 737.853 54.592C737.671 54.4545 737.486 54.3001 737.303 54.1345C737.246 54.0783 737.198 54.0222 737.155 53.9689C737.056 53.6629 736.854 53.413 736.543 53.2193C736.501 53.1772 736.495 53.1071 736.523 53.0116C736.241 52.8853 736.017 52.7281 735.846 52.5316C735.746 52.4053 735.649 52.2874 735.55 52.1779C735.535 52.0656 735.487 51.9702 735.402 51.8859C735.331 51.8158 735.239 51.7736 735.126 51.7596C735.14 51.7175 735.14 51.6754 735.126 51.6333C735.111 51.6052 735.091 51.5771 735.063 51.5491C735.049 51.507 735.043 51.4592 735.043 51.4031C734.861 51.347 734.727 51.2571 734.642 51.1308C734.627 51.1027 734.622 51.0606 734.622 51.0045C734.439 50.9062 734.249 50.8108 734.052 50.7125C734.067 50.6564 734.058 50.6143 734.032 50.5862C734.018 50.5581 733.998 50.5245 733.97 50.4823C733.941 50.4543 733.936 50.4206 733.95 50.3785C733.753 50.2802 733.554 50.1848 733.358 50.0865V49.9602C733.329 49.9321 733.309 49.8985 733.295 49.8564C733.267 49.8283 733.261 49.7862 733.275 49.73C732.879 49.5925 732.572 49.396 732.344 49.1461C732.287 49.076 732.21 49.0338 732.111 49.0198C732.111 48.9637 732.105 48.9159 732.091 48.8738C732.062 48.8598 732.034 48.8317 732.005 48.7896C731.991 48.7616 731.991 48.7194 732.005 48.6633C729.822 46.8162 727.519 45.4744 725.093 44.6406C725.233 44.7782 725.333 44.9326 725.389 45.0982C725.461 45.2498 725.58 45.3621 725.748 45.4322C725.677 45.6961 725.72 45.9039 725.876 46.0582L725.882 46.1004Z" fill="#01632D"/>
<path d="M731.086 178.001L735.017 142.156H530.07L526.139 178.001H731.086ZM697.65 158.348H692.452L693.044 156.557H686.829L683.576 166.539H689.81L690.656 163.454L689.599 160.891H696.617L693.995 169.083H679.433C679.18 169.083 678.955 169.041 678.756 168.956C678.545 168.872 678.383 168.749 678.269 168.58C678.155 168.429 678.093 168.232 678.078 167.996C678.064 167.789 678.113 167.558 678.226 167.309L682.645 153.991H699.025L697.65 158.348ZM565.134 153.991H580.456L579.081 158.348H573.902L574.495 156.557H569.55L568.027 160.392H578.426L576.037 167.311C575.995 167.561 575.895 167.791 575.741 167.999C575.573 168.235 575.368 168.429 575.129 168.583C574.904 168.749 574.665 168.875 574.412 168.959C574.159 169.043 573.891 169.085 573.609 169.085H560.124L561.413 164.979L562.006 166.02H571.369L572.468 162.957H562.091L565.134 153.997M593.266 156.56L592.125 159.872H600.156L599.396 162.416H591.069L589.759 166.542H598.846L598.106 169.085H583.564L588.361 155.019L587.792 153.997H602.587L601.847 156.56H593.266ZM610.091 155.019L609.522 153.997H626.409L623.872 161.686C623.83 161.922 623.724 162.152 623.556 162.374C623.388 162.609 623.198 162.803 622.987 162.957C622.748 163.123 622.5 163.249 622.247 163.334C621.979 163.418 621.712 163.46 621.444 163.46H618.062L622.438 169.088H616.73L612.63 163.46L610.749 169.088H605.57L610.094 155.022M642.96 164.984H636.45L633.87 169.091H629.452L638.223 154.732L637.588 154.003H648.241L647.376 169.091H642.727L642.96 164.984ZM663.568 154L667.141 163.463L670.312 154H674.75L669.72 169.088H664.522L661.14 159.878L658.034 169.088H653.362L658.159 155.022L657.314 154H663.571M641.782 156.563L638.021 162.418H643.219L643.578 156.563H641.782ZM614.771 156.563L613.376 160.897H619.104L620.479 156.563H614.771Z" fill="#01632D"/>
<path d="M150.942 74.0095C150.9 75.3008 150.068 75.9465 148.449 75.9465H121.859V77.802C123.918 77.8581 125.381 78.268 126.255 79.0315C127.1 79.781 127.522 81.4204 127.522 83.9497V117.442C127.522 119.789 127.135 121.389 126.36 122.237C125.586 123.084 124.086 123.522 121.859 123.55V125.406H149.018C149.935 125.406 150.407 125.976 150.433 127.116H152.292L155.335 111.174H152.693C151.48 119.427 146.706 123.553 138.362 123.553H134.411V101.315L148.127 100.919V98.2298H144.472C140.793 98.2298 138.137 97.1799 136.503 95.0829C134.827 93 133.99 89.7549 133.99 85.3505C133.99 83.1272 134.129 80.612 134.411 77.8048H137.244C141.514 77.8048 144.691 78.6666 146.775 80.3902C148.861 82.1278 149.932 84.9266 149.986 88.7893H152.69V74.0123H150.937M207.261 77.8048V75.9493H190.986V77.8048C193.365 78.0546 195.093 80.3481 196.164 84.6824C197.263 89.0166 197.812 94.8724 197.812 102.252V113.779L170.696 75.9521H158.458V77.8076C160.473 77.8638 161.917 78.2596 162.791 78.995C163.636 79.7446 164.058 81.266 164.058 83.5595V96.9188C164.058 113.953 161.783 122.832 157.231 123.553V125.409H173.441V123.553C171.004 123.247 169.25 120.943 168.177 116.634C167.092 112.299 166.549 105.582 166.549 96.4809V82.0998L198.737 127.177H200.448V101.043C200.448 85.9821 202.717 78.2371 207.255 77.8048M211.588 75.9493C210.939 75.9493 210.455 75.3654 210.13 74.1976H208.502V88.8903H211.101C211.326 81.499 214.876 77.802 221.754 77.802H224.333V117.442C224.333 119.764 223.946 121.361 223.172 122.237C222.411 123.084 220.911 123.522 218.671 123.55V125.406H236.89V123.55C233.115 123.452 231.225 121.417 231.225 117.445V77.8048H233.232C240.714 77.8048 244.491 81.5018 244.56 88.8931H247.201V74.2004H245.425C245.425 75.3682 245.004 75.9521 244.158 75.9521H211.588M315.55 79.4751C316.903 78.1276 318.651 77.4539 320.791 77.4539C323.371 77.4539 325.568 78.5234 327.385 80.6625C329.175 82.7735 330.169 85.5189 330.365 88.8959H333.092V76.8083C329.414 75.4889 326.457 74.8292 324.216 74.8292C319.821 74.8292 315.975 76.2187 312.675 78.9978C309.393 81.791 307.75 85.0417 307.75 88.75C307.75 90.1676 308.046 91.5206 308.638 92.8147C309.216 94.106 310.076 95.3159 311.218 96.4416C313.401 98.2466 315.775 100.026 318.34 101.778C323.032 105.001 326.032 107.454 327.345 109.136C328.669 110.831 329.332 112.805 329.332 115.053C329.332 117.625 328.52 119.75 326.901 121.431C325.309 123.099 323.14 123.932 320.39 123.932C317.361 123.932 314.748 122.618 312.55 119.994C310.366 117.369 309.273 114.096 309.273 110.177H306.631V124.14C310.688 125.737 314.338 126.537 317.58 126.537C322.161 126.537 326.237 124.954 329.819 121.785C333.411 118.63 335.208 115.034 335.208 110.988C335.208 108.515 334.539 106.424 333.201 104.714C331.834 103.019 329.198 100.818 325.295 98.1091C320.139 94.5243 316.891 91.8715 315.55 90.1479C314.155 88.4103 313.458 86.5576 313.458 84.5841C313.458 82.5405 314.155 80.8393 315.55 79.4779M288.224 77.395C285.024 75.6854 281.34 74.832 277.17 74.832C270.167 74.832 263.932 77.6448 258.466 83.2732C253 88.8875 250.265 95.5209 250.265 103.176C250.265 109.804 252.448 115.362 256.815 119.848C261.182 124.308 266.503 126.537 272.771 126.537C277.138 126.537 281.323 125.496 285.326 123.41C289.3 121.285 292.787 117.956 295.788 113.428C298.774 108.858 300.269 103.827 300.269 98.3393C300.269 93.2948 299.065 88.9689 296.653 85.3561C294.245 81.7433 291.432 79.0905 288.221 77.395M289.34 118.054C286.24 121.417 282.542 123.099 278.243 123.099C272.845 123.099 267.886 120.71 263.363 115.929C258.825 111.162 256.556 104.745 256.556 96.6718C256.556 91.1838 258.071 86.7793 261.1 83.4584C264.1 80.1095 267.898 78.4364 272.492 78.4364C275.578 78.4364 278.898 79.5059 282.448 81.645C285.998 83.756 288.802 86.973 290.86 91.2933C292.933 95.5995 293.966 100.22 293.966 105.152C293.966 110.404 292.423 114.705 289.337 118.054M362.611 73.9141H360.413L345.132 114.304C342.848 120.319 340.32 123.405 337.545 123.556V125.412H354.241V123.556H352.254C350.945 123.556 349.88 123.146 349.063 122.327C348.26 121.493 347.859 120.429 347.859 119.138C347.859 116.693 348.704 112.967 350.395 107.968H366.71L371.191 121.431C371.291 121.737 371.339 122.021 371.339 122.284C371.339 123.132 371.114 123.556 370.662 123.556H369.796V125.412H383.173V123.556C381.511 123.472 380.11 122.506 378.969 120.659C377.799 118.77 376.728 116.359 375.758 113.428L362.611 73.9141ZM359.104 85.0024L365.93 105.573H351.326L359.104 85.0024ZM477.608 73.9141H475.41L460.128 114.304C457.845 120.319 455.317 123.405 452.542 123.556V125.412H469.238V123.556H467.251C465.942 123.556 464.877 123.146 464.06 122.327C463.257 121.493 462.856 120.429 462.856 119.138C462.856 116.693 463.701 112.967 465.392 107.968H481.707L486.188 121.431C486.288 121.737 486.336 122.021 486.336 122.284C486.336 123.132 486.111 123.556 485.659 123.556H484.793V125.412H498.17V123.556C496.508 123.472 495.107 122.506 493.966 120.659C492.796 118.77 491.725 116.359 490.754 113.428L477.608 73.9141ZM466.323 105.571L474.101 84.9996L480.927 105.571H466.323ZM429.252 77.395C432.93 77.395 436.121 78.3943 438.826 80.3958C441.53 82.4114 443.096 85.2578 443.517 88.9409H446.222V77.2293C441.191 75.6321 436.691 74.832 432.716 74.832C427.587 74.832 422.986 76.0419 418.915 78.4589C414.844 80.8899 411.568 84.309 409.088 88.7135C406.608 93.1179 405.367 98.0305 405.367 103.448C405.367 107.783 406.184 111.673 407.818 115.121C409.452 118.579 411.841 121.352 414.984 123.435C418.112 125.504 421.275 126.54 424.472 126.54C427.43 126.54 430.587 125.546 433.941 123.559C434.362 123.281 434.857 122.947 435.421 122.56C437.436 121.114 439.162 120.392 440.599 120.392C443.785 120.392 445.439 122.658 445.567 127.186H447.426V111.263C447.426 109.818 447.756 108.597 448.419 107.595C449.097 106.553 450.019 106.025 451.189 106.011V104.136H432.591V106.011H433.943C438.635 106.011 440.981 107.943 440.981 111.805C440.981 114.486 439.888 116.78 437.704 118.683C435.521 120.586 432.802 121.538 429.545 121.538C424.6 121.538 420.387 119.3 416.905 114.826C413.427 110.309 411.684 104.65 411.684 97.8396C411.684 91.4757 413.404 86.4734 416.84 82.8353C420.236 79.2084 424.37 77.395 429.246 77.395M500.388 75.9577V77.8132C502.475 77.8694 503.938 78.2792 504.783 79.0428C505.629 79.7923 506.05 81.4176 506.05 83.9188V117.45C506.05 119.772 505.663 121.369 504.889 122.245C504.114 123.093 502.614 123.531 500.388 123.559V125.414H518.67V123.559C514.853 123.433 512.942 121.397 512.942 117.453V98.2579L527.695 122.08C529.075 124.303 530.661 125.414 532.449 125.414H541.388V123.559C538.245 123.379 534.809 120.294 531.074 114.306L522.767 100.97C526.712 98.6228 529.679 96.0711 531.666 93.32C533.639 90.5831 534.624 87.6299 534.624 84.4634C534.624 81.6282 533.75 79.5031 532.002 78.0855C530.24 76.6679 527.598 75.9605 524.076 75.9605H500.385M518.667 77.816C520.979 77.816 522.943 78.9136 524.563 81.1088C526.169 83.3181 526.971 86.2712 526.971 89.9655C526.971 92.9944 526.428 95.2879 525.343 96.843C524.244 98.3561 522.602 99.114 520.418 99.114C518.235 99.114 515.838 98.0221 512.937 95.8409V79.753C514.727 78.4617 516.635 77.816 518.664 77.816M586.023 80.8366C582.755 77.5858 577.835 75.9605 571.271 75.9605H542V77.816C544.084 77.8722 545.55 78.282 546.395 79.0456C547.241 79.7951 547.662 81.4204 547.662 83.9216V117.453C547.662 119.775 547.275 121.372 546.5 122.248C545.726 123.096 544.226 123.534 542 123.562V125.417H561.506C570.51 125.417 577.667 122.506 582.979 116.684C588.263 110.848 590.905 103.782 590.905 95.49C590.905 88.9605 589.277 84.076 586.023 80.8394M554.551 80.6737C557.412 78.6863 561.011 77.6925 565.352 77.6925C572.031 77.6925 576.799 79.8316 579.66 84.1125C582.493 88.3906 583.908 93.859 583.908 100.515C583.908 107.114 582.279 112.49 579.025 116.645C575.771 120.799 571.487 122.877 566.175 122.877C562.4 122.877 558.523 121.675 554.551 119.272V80.6765M625.121 74.0292C625.078 75.3205 624.247 75.9661 622.627 75.9661H596.038V77.8216C598.096 77.8778 599.559 78.2876 600.433 79.0512C601.279 79.8007 601.7 81.4401 601.7 83.9693V117.462C601.7 119.809 601.313 121.409 600.539 122.256C599.764 123.104 598.264 123.542 596.038 123.57V125.426H623.196C624.113 125.426 624.583 125.996 624.611 127.135H626.47L629.513 111.193H626.872C625.659 119.446 620.882 123.573 612.541 123.573H608.589V101.335L622.305 100.939V98.2494H618.65C614.972 98.2494 612.316 97.1996 610.682 95.1026C609.005 93.0197 608.168 89.7746 608.168 85.3701C608.168 83.1469 608.308 80.6316 608.589 77.8245H611.422C615.692 77.8245 618.869 78.6863 620.953 80.4099C623.04 82.1475 624.11 84.9462 624.164 88.8089H626.869V74.032H625.115M632.639 75.9689V77.8245C634.655 77.8806 636.098 78.2764 636.972 79.0119C637.818 79.7614 638.239 81.2829 638.239 83.5763V96.9357C638.239 113.97 635.964 122.849 631.412 123.57V125.426H647.622V123.57C645.185 123.264 643.431 120.959 642.358 116.65C641.274 112.316 640.73 105.599 640.73 96.4978V82.1166L672.919 127.194H674.63V101.059C674.63 85.9989 676.898 78.2539 681.436 77.8216V75.9661H665.161V77.8216C667.541 78.0715 669.269 80.3649 670.339 84.6992C671.438 89.0335 671.988 94.8892 671.988 102.269V113.796L644.872 75.9689H632.633H632.639Z" fill="#E6A92C"/>
<path d="M128.1 143.507V166.805H124.667V143.507H128.1ZM125.276 166.805V163.628H138.209V166.805H125.276ZM142.52 166.805V151.081H145.793V166.805H142.52ZM144.124 147.487C143.547 147.487 143.044 147.283 142.616 146.877C142.209 146.47 142.006 145.978 142.006 145.401C142.006 144.823 142.209 144.331 142.616 143.925C143.044 143.497 143.547 143.283 144.124 143.283C144.702 143.283 145.194 143.497 145.6 143.925C146.028 144.331 146.242 144.823 146.242 145.401C146.242 145.978 146.028 146.47 145.6 146.877C145.194 147.283 144.702 147.487 144.124 147.487ZM155.912 166.805L149.591 151.081H153.121L156.362 159.36C156.64 160.173 156.897 160.922 157.132 161.606C157.367 162.291 157.538 162.858 157.645 163.307C157.774 162.793 157.956 162.194 158.191 161.51C158.448 160.825 158.715 160.109 158.993 159.36L162.33 151.081H165.732L159.186 166.805H155.912ZM169.538 166.805V151.081H172.811V166.805H169.538ZM171.142 147.487C170.565 147.487 170.062 147.283 169.634 146.877C169.228 146.47 169.024 145.978 169.024 145.401C169.024 144.823 169.228 144.331 169.634 143.925C170.062 143.497 170.565 143.283 171.142 143.283C171.72 143.283 172.212 143.497 172.619 143.925C173.046 144.331 173.26 144.823 173.26 145.401C173.26 145.978 173.046 146.47 172.619 146.877C172.212 147.283 171.72 147.487 171.142 147.487ZM181.808 166.805H178.534V151.081H181.519L181.84 153.359C182.332 152.503 183.038 151.84 183.958 151.369C184.899 150.877 185.915 150.631 187.006 150.631C189.038 150.631 190.547 151.22 191.531 152.396C192.515 153.552 193.007 155.135 193.007 157.146V166.805H189.734V157.916C189.734 156.418 189.402 155.327 188.739 154.643C188.076 153.937 187.188 153.584 186.076 153.584C184.728 153.584 183.679 154.022 182.931 154.899C182.182 155.776 181.808 156.942 181.808 158.397V166.805ZM197.567 158.558C197.567 157.06 197.877 155.712 198.498 154.514C199.118 153.316 199.984 152.364 201.097 151.658C202.209 150.952 203.525 150.599 205.044 150.599C206.435 150.599 207.622 150.931 208.606 151.594C209.611 152.236 210.307 153.124 210.692 154.258L210.307 154.675L210.628 151.081H213.644V166.131C213.644 167.799 213.312 169.254 212.649 170.495C211.986 171.736 211.055 172.688 209.857 173.351C208.681 174.014 207.269 174.346 205.622 174.346C203.461 174.346 201.675 173.768 200.263 172.613C198.851 171.458 198.016 169.864 197.76 167.832H201.033C201.204 168.944 201.685 169.81 202.477 170.431C203.29 171.051 204.338 171.361 205.622 171.361C207.076 171.361 208.232 170.934 209.087 170.078C209.943 169.222 210.371 168.078 210.371 166.644V162.344L210.788 162.761C210.382 163.895 209.644 164.794 208.574 165.457C207.526 166.099 206.306 166.42 204.916 166.42C203.418 166.42 202.124 166.077 201.033 165.393C199.942 164.687 199.086 163.745 198.466 162.569C197.866 161.371 197.567 160.034 197.567 158.558ZM200.872 158.493C200.872 159.435 201.065 160.29 201.45 161.061C201.835 161.809 202.37 162.408 203.054 162.858C203.76 163.307 204.584 163.532 205.525 163.532C206.488 163.532 207.322 163.318 208.028 162.89C208.756 162.462 209.301 161.863 209.665 161.093C210.05 160.323 210.243 159.445 210.243 158.461C210.243 157.477 210.05 156.621 209.665 155.894C209.301 155.145 208.766 154.557 208.06 154.129C207.376 153.701 206.531 153.487 205.525 153.487C204.563 153.487 203.728 153.712 203.022 154.161C202.338 154.589 201.803 155.188 201.418 155.958C201.054 156.707 200.872 157.552 200.872 158.493ZM233.476 143.507V166.805H230.042V143.507H233.476ZM239.22 156.632H232.481V153.68H238.963C240.225 153.68 241.188 153.37 241.851 152.749C242.536 152.107 242.878 151.209 242.878 150.054C242.878 148.941 242.525 148.086 241.819 147.487C241.113 146.866 240.108 146.556 238.803 146.556H232.064V143.507H239.027C241.316 143.507 243.113 144.064 244.418 145.176C245.723 146.288 246.376 147.797 246.376 149.701C246.376 151.134 246.034 152.332 245.349 153.295C244.664 154.236 243.638 154.921 242.268 155.349V154.931C243.766 155.295 244.889 155.958 245.638 156.921C246.408 157.862 246.793 159.082 246.793 160.579C246.793 161.863 246.494 162.975 245.894 163.917C245.295 164.837 244.44 165.553 243.327 166.067C242.215 166.559 240.878 166.805 239.316 166.805H232.064V163.756H239.22C240.503 163.756 241.498 163.446 242.204 162.826C242.91 162.184 243.263 161.285 243.263 160.13C243.263 159.018 242.91 158.162 242.204 157.563C241.498 156.942 240.503 156.632 239.22 156.632ZM258.46 167.222C256.92 167.222 255.551 166.869 254.353 166.163C253.176 165.457 252.245 164.484 251.561 163.243C250.898 162.002 250.566 160.569 250.566 158.943C250.566 157.295 250.887 155.851 251.529 154.61C252.192 153.37 253.101 152.396 254.256 151.69C255.433 150.984 256.781 150.631 258.3 150.631C259.84 150.631 261.166 150.952 262.279 151.594C263.413 152.236 264.279 153.145 264.878 154.322C265.499 155.498 265.809 156.878 265.809 158.461V159.617L252.331 159.649L252.395 157.467H262.536C262.536 156.226 262.151 155.231 261.38 154.482C260.632 153.733 259.615 153.359 258.332 153.359C257.348 153.359 256.513 153.573 255.829 154.001C255.144 154.407 254.62 155.028 254.256 155.862C253.893 156.675 253.711 157.659 253.711 158.814C253.711 160.654 254.117 162.055 254.93 163.018C255.743 163.981 256.931 164.462 258.492 164.462C259.648 164.462 260.589 164.237 261.316 163.788C262.065 163.339 262.546 162.697 262.76 161.863H265.841C265.477 163.553 264.643 164.869 263.338 165.81C262.054 166.751 260.428 167.222 258.46 167.222ZM271.689 151.081L277.112 166.163L275.154 169.147L268.191 151.081H271.689ZM268.64 173.929V171.201H270.758C271.25 171.201 271.699 171.148 272.106 171.041C272.512 170.955 272.876 170.752 273.197 170.431C273.518 170.131 273.796 169.65 274.031 168.987L280.642 151.081H284.011L276.502 170.335C275.967 171.704 275.283 172.699 274.448 173.319C273.614 173.939 272.576 174.25 271.336 174.25C270.822 174.25 270.341 174.217 269.892 174.153C269.464 174.111 269.047 174.036 268.64 173.929ZM286.171 158.911C286.171 157.285 286.524 155.851 287.23 154.61C287.957 153.37 288.941 152.396 290.182 151.69C291.444 150.984 292.867 150.631 294.45 150.631C296.055 150.631 297.477 150.984 298.718 151.69C299.959 152.396 300.932 153.37 301.638 154.61C302.344 155.851 302.697 157.285 302.697 158.911C302.697 160.536 302.344 161.97 301.638 163.211C300.932 164.451 299.959 165.425 298.718 166.131C297.477 166.837 296.055 167.19 294.45 167.19C292.867 167.19 291.444 166.837 290.182 166.131C288.941 165.425 287.957 164.451 287.23 163.211C286.524 161.97 286.171 160.536 286.171 158.911ZM289.476 158.911C289.476 159.959 289.69 160.889 290.118 161.702C290.546 162.494 291.123 163.114 291.851 163.564C292.6 164.013 293.466 164.237 294.45 164.237C295.434 164.237 296.29 164.013 297.017 163.564C297.766 163.114 298.344 162.494 298.75 161.702C299.178 160.889 299.392 159.959 299.392 158.911C299.392 157.841 299.178 156.91 298.75 156.119C298.344 155.327 297.766 154.707 297.017 154.258C296.29 153.808 295.434 153.584 294.45 153.584C293.466 153.584 292.6 153.808 291.851 154.258C291.123 154.707 290.546 155.327 290.118 156.119C289.69 156.91 289.476 157.841 289.476 158.911ZM310.718 166.805H307.445V151.081H310.429L310.75 153.359C311.242 152.503 311.948 151.84 312.868 151.369C313.809 150.877 314.825 150.631 315.916 150.631C317.949 150.631 319.457 151.22 320.441 152.396C321.425 153.552 321.917 155.135 321.917 157.146V166.805H318.644V157.916C318.644 156.418 318.312 155.327 317.649 154.643C316.986 153.937 316.098 153.584 314.986 153.584C313.638 153.584 312.59 154.022 311.841 154.899C311.092 155.776 310.718 156.942 310.718 158.397V166.805ZM333.826 167.222C332.307 167.222 330.991 166.869 329.879 166.163C328.788 165.457 327.943 164.494 327.344 163.275C326.745 162.034 326.445 160.601 326.445 158.975C326.445 157.37 326.745 155.937 327.344 154.675C327.943 153.412 328.809 152.428 329.943 151.722C331.077 150.995 332.425 150.631 333.986 150.631C335.163 150.631 336.222 150.877 337.163 151.369C338.104 151.84 338.832 152.525 339.345 153.423V143.09H342.618V166.805H339.634L339.409 164.077C338.896 165.083 338.137 165.863 337.131 166.42C336.147 166.954 335.045 167.222 333.826 167.222ZM334.5 164.205C335.505 164.205 336.361 163.981 337.067 163.532C337.794 163.082 338.35 162.462 338.736 161.67C339.121 160.857 339.313 159.927 339.313 158.878C339.313 157.83 339.121 156.91 338.736 156.119C338.35 155.327 337.794 154.707 337.067 154.258C336.361 153.787 335.505 153.552 334.5 153.552C333.516 153.552 332.671 153.787 331.965 154.258C331.259 154.707 330.713 155.338 330.328 156.151C329.943 156.942 329.75 157.852 329.75 158.878C329.75 159.927 329.943 160.857 330.328 161.67C330.713 162.462 331.259 163.082 331.965 163.532C332.671 163.981 333.516 164.205 334.5 164.205ZM367.004 166.805H359.078V143.507H366.811C369.143 143.507 371.176 143.999 372.908 144.984C374.663 145.968 376.032 147.337 377.016 149.091C378 150.845 378.492 152.878 378.492 155.188C378.492 157.477 378 159.499 377.016 161.253C376.053 162.986 374.705 164.344 372.973 165.329C371.261 166.313 369.272 166.805 367.004 166.805ZM362.511 145.112V165.232L360.907 163.628H366.715C368.405 163.628 369.849 163.285 371.047 162.601C372.267 161.916 373.208 160.943 373.871 159.681C374.534 158.419 374.866 156.921 374.866 155.188C374.866 153.434 374.524 151.926 373.839 150.663C373.176 149.401 372.224 148.428 370.983 147.743C369.742 147.037 368.266 146.684 366.555 146.684H360.907L362.511 145.112ZM392.597 150.952V154.001H391.249C389.816 154.001 388.682 154.407 387.848 155.22C387.035 156.012 386.628 157.167 386.628 158.686V166.805H383.355V151.081H386.436L386.692 154.29H386.403C386.617 153.241 387.12 152.396 387.912 151.754C388.703 151.091 389.73 150.76 390.992 150.76C391.249 150.76 391.506 150.781 391.762 150.824C392.019 150.845 392.297 150.888 392.597 150.952ZM403.167 167.222C401.627 167.222 400.258 166.869 399.06 166.163C397.883 165.457 396.952 164.484 396.268 163.243C395.605 162.002 395.273 160.569 395.273 158.943C395.273 157.295 395.594 155.851 396.236 154.61C396.899 153.37 397.808 152.396 398.963 151.69C400.14 150.984 401.488 150.631 403.007 150.631C404.547 150.631 405.873 150.952 406.986 151.594C408.12 152.236 408.986 153.145 409.585 154.322C410.206 155.498 410.516 156.878 410.516 158.461V159.617L397.038 159.649L397.102 157.467H407.243C407.243 156.226 406.858 155.231 406.087 154.482C405.339 153.733 404.322 153.359 403.039 153.359C402.055 153.359 401.22 153.573 400.536 154.001C399.851 154.407 399.327 155.028 398.963 155.862C398.6 156.675 398.418 157.659 398.418 158.814C398.418 160.654 398.824 162.055 399.637 163.018C400.45 163.981 401.638 164.462 403.199 164.462C404.355 164.462 405.296 164.237 406.023 163.788C406.772 163.339 407.253 162.697 407.467 161.863H410.548C410.184 163.553 409.35 164.869 408.045 165.81C406.761 166.751 405.135 167.222 403.167 167.222ZM419.725 167.222C418.057 167.222 416.741 166.783 415.778 165.906C414.837 165.008 414.366 163.842 414.366 162.408C414.366 160.954 414.88 159.798 415.907 158.943C416.934 158.066 418.378 157.552 420.239 157.402L425.117 157.017V156.6C425.117 155.766 424.956 155.103 424.635 154.61C424.336 154.118 423.918 153.765 423.384 153.552C422.849 153.316 422.228 153.199 421.522 153.199C420.303 153.199 419.351 153.455 418.666 153.969C418.003 154.482 417.672 155.199 417.672 156.119H414.848C414.848 154.985 415.126 154.011 415.682 153.199C416.238 152.386 417.03 151.754 418.057 151.305C419.105 150.856 420.314 150.631 421.683 150.631C423.031 150.631 424.197 150.867 425.181 151.337C426.165 151.787 426.935 152.493 427.491 153.455C428.047 154.397 428.326 155.595 428.326 157.049V166.805H425.47L425.181 164.302C424.796 165.2 424.1 165.917 423.095 166.452C422.111 166.965 420.988 167.222 419.725 167.222ZM420.72 164.687C422.089 164.687 423.159 164.28 423.929 163.467C424.721 162.633 425.117 161.531 425.117 160.162V159.296L421.33 159.617C420.025 159.723 419.094 160.012 418.538 160.483C417.982 160.954 417.704 161.542 417.704 162.248C417.704 163.061 417.971 163.671 418.506 164.077C419.041 164.484 419.779 164.687 420.72 164.687ZM437.152 166.805H433.879V151.081H436.831L437.249 153.937L436.863 153.648C437.184 152.792 437.773 152.075 438.628 151.498C439.506 150.92 440.565 150.631 441.805 150.631C443.217 150.631 444.373 151.006 445.271 151.754C446.17 152.482 446.769 153.455 447.068 154.675H446.49C446.726 153.455 447.325 152.482 448.287 151.754C449.25 151.006 450.438 150.631 451.849 150.631C453.689 150.631 455.123 151.155 456.15 152.204C457.176 153.252 457.69 154.685 457.69 156.504V166.805H454.417V157.306C454.417 156.108 454.106 155.188 453.486 154.546C452.887 153.905 452.074 153.584 451.047 153.584C450.341 153.584 449.71 153.744 449.154 154.065C448.619 154.364 448.191 154.824 447.87 155.445C447.571 156.044 447.421 156.761 447.421 157.595V166.805H444.148V157.306C444.148 156.108 443.848 155.188 443.249 154.546C442.65 153.905 441.837 153.584 440.811 153.584C440.105 153.584 439.473 153.744 438.917 154.065C438.361 154.386 437.922 154.846 437.602 155.445C437.302 156.044 437.152 156.761 437.152 157.595V166.805ZM461.742 162.152H464.887C464.908 162.922 465.187 163.532 465.721 163.981C466.278 164.43 467.026 164.655 467.968 164.655C468.995 164.655 469.786 164.462 470.342 164.077C470.899 163.671 471.177 163.136 471.177 162.473C471.177 161.98 471.027 161.574 470.727 161.253C470.449 160.911 469.904 160.654 469.091 160.483L466.331 159.809C464.94 159.488 463.892 158.975 463.186 158.269C462.502 157.541 462.159 156.589 462.159 155.413C462.159 154.407 462.416 153.552 462.93 152.846C463.464 152.14 464.181 151.594 465.08 151.209C465.999 150.824 467.037 150.631 468.192 150.631C469.348 150.631 470.353 150.835 471.209 151.241C472.086 151.648 472.77 152.225 473.262 152.974C473.755 153.701 474.001 154.578 474.001 155.605H470.888C470.866 154.835 470.61 154.236 470.118 153.808C469.626 153.359 468.952 153.134 468.096 153.134C467.197 153.134 466.502 153.327 466.01 153.712C465.54 154.076 465.304 154.6 465.304 155.284C465.304 156.29 466.042 156.974 467.518 157.338L470.31 157.98C471.637 158.301 472.631 158.793 473.295 159.456C473.958 160.119 474.289 161.039 474.289 162.216C474.289 163.243 474.022 164.131 473.487 164.879C472.952 165.628 472.204 166.206 471.241 166.612C470.278 167.019 469.166 167.222 467.903 167.222C466.021 167.222 464.523 166.762 463.411 165.842C462.298 164.901 461.742 163.671 461.742 162.152Z" fill="#0E512D"/>
</g>
<defs>
<clipPath id="clip0_1221_262">
<rect width="787.094" height="178" fill="white"/>
</clipPath>
</defs>
</svg>
