<svg width="433" height="433" viewBox="0 0 433 433" fill="none" xmlns="http://www.w3.org/2000/svg">
<path fill-rule="evenodd" clip-rule="evenodd" d="M78.7273 0C57.8475 0 37.8229 8.29446 23.0587 23.0587C8.29446 37.8229 0 57.8475 0 78.7273V354.273C0 375.152 8.29446 395.177 23.0587 409.941C37.8229 424.706 57.8475 433 78.7273 433H354.273C375.152 433 395.177 424.706 409.941 409.941C424.706 395.177 433 375.152 433 354.273V78.7273C433 57.8475 424.706 37.8229 409.941 23.0587C395.177 8.29446 375.152 0 354.273 0H78.7273ZM215.004 54.4596C176.9 54.4596 141.709 68.5321 116.32 98.1532C91.1268 127.578 77.0937 170.445 77.0937 225.554C77.0937 281.922 96.6377 321.01 126.298 345.711C155.368 369.92 192.095 378.54 224.058 378.54C288.654 378.54 341.283 338.783 343.822 281.627C345.101 252.931 332.406 229.077 311.327 212.997C305.549 208.609 299.321 204.848 292.747 201.778L292.511 198.097C290.248 168.083 277.415 149.188 261.217 138.422C249.48 130.816 235.8 126.75 221.814 126.712C199.298 126.712 179.636 136.06 163.772 154.266C162.288 155.972 161.153 157.954 160.434 160.098C159.715 162.242 159.425 164.507 159.582 166.763C159.738 169.019 160.337 171.223 161.345 173.247C162.353 175.272 163.749 177.078 165.455 178.563C167.161 180.048 169.143 181.183 171.287 181.902C173.431 182.621 175.696 182.91 177.952 182.754C180.209 182.598 182.412 181.999 184.437 180.991C186.461 179.983 188.268 178.586 189.752 176.881C199.593 165.583 210.025 161.155 221.834 161.155C226.026 161.155 234.666 162.139 242.165 167.118C247.617 170.74 253.935 177.392 256.828 191.071C248.649 189.806 240.384 189.187 232.108 189.221C202.782 189.221 182.175 196.68 169.382 210.379C156.628 224.018 154.778 240.512 155.427 251.652C155.854 258.934 157.81 266.046 161.167 272.523C164.524 279 169.207 284.697 174.912 289.244C187.213 299.164 204.041 303.966 224.058 302.49C245.787 300.896 264.74 289.834 277.199 270.92C283.064 262.024 287.335 251.632 289.953 240.02L290.425 240.374C303.257 250.176 310.166 263.54 309.418 280.092C307.942 313.453 276.156 344.097 224.058 344.097C197.664 344.097 169.539 336.894 148.322 319.239C127.696 302.057 111.537 273.282 111.537 225.554C111.537 176.014 124.153 141.965 142.477 120.571C160.584 99.4522 185.737 88.9028 215.004 88.9028C246.042 88.9028 270.645 96.3425 288.26 108.978C305.619 121.417 317.389 139.741 321.739 164.205C322.54 168.702 325.095 172.697 328.841 175.31C332.588 177.923 337.219 178.941 341.716 178.14C346.213 177.339 350.207 174.784 352.82 171.038C355.434 167.291 356.452 162.66 355.65 158.163C349.805 125.413 333.41 98.9799 308.335 80.9907C283.497 63.1786 251.337 54.4596 215.004 54.4596ZM232.108 223.664C241.266 223.69 249.729 224.53 257.497 226.183C255.883 237.166 252.577 245.708 248.444 251.967C241.771 262.083 232.442 267.338 221.519 268.145C208.411 269.109 200.715 265.823 196.503 262.437C194.552 260.894 192.948 258.958 191.795 256.753C190.642 254.549 189.966 252.127 189.811 249.644C189.457 243.661 190.658 238.052 194.555 233.899C198.412 229.766 208.057 223.664 232.108 223.664Z" fill="black"/>
</svg>
