<svg width="459" height="459" viewBox="0 0 459 459" fill="none" xmlns="http://www.w3.org/2000/svg">
<path fill-rule="evenodd" clip-rule="evenodd" d="M83.3333 0C61.232 0 40.0358 8.77974 24.4078 24.4078C8.77974 40.0358 0 61.232 0 83.3333V375C0 397.101 8.77974 418.298 24.4078 433.926C40.0358 449.554 61.232 458.333 83.3333 458.333H375C397.101 458.333 418.298 449.554 433.926 433.926C449.554 418.298 458.333 397.101 458.333 375V83.3333C458.333 61.232 449.554 40.0358 433.926 24.4078C418.298 8.77974 397.101 0 375 0H83.3333ZM236.25 72.9167H285.979C285.979 106.25 314.146 143.958 357.021 143.958V193.667C327.5 191.625 302.271 186.792 285.979 172.354V300.188C285.979 335.708 257.896 385.417 193.667 385.417C115.208 385.417 101.333 314.375 101.333 293.083C101.333 271.792 113.833 200.75 200.75 200.75V250.479C178.021 245.667 151.042 264.667 151.042 293.083C151.042 328.604 172.354 335.708 193.667 335.708C214.979 335.708 236.271 314.396 236.271 293.083L236.25 72.9167Z" fill="black"/>
</svg>
