<svg width="417" height="417" viewBox="0 0 417 417" fill="none" xmlns="http://www.w3.org/2000/svg">
<path d="M208.334 0C323.396 0 416.667 93.2708 416.667 208.333C416.667 323.396 323.396 416.667 208.334 416.667C171.516 416.73 135.346 406.986 103.542 388.438L0.0836553 416.667L28.2503 313.167C9.68696 281.353 -0.0642006 245.167 0.000318098 208.333C0.000318098 93.2708 93.2712 0 208.334 0ZM137.334 110.417L133.167 110.583C130.473 110.769 127.841 111.477 125.417 112.667C123.158 113.948 121.095 115.548 119.292 117.417C116.792 119.771 115.375 121.813 113.854 123.792C106.149 133.81 102 146.111 102.063 158.75C102.104 168.958 104.771 178.896 108.938 188.188C117.459 206.979 131.479 226.875 149.979 245.312C154.438 249.75 158.813 254.208 163.521 258.354C186.509 278.592 213.902 293.187 243.521 300.979L255.355 302.792C259.209 303 263.063 302.708 266.938 302.521C273.004 302.201 278.927 300.558 284.292 297.708C287.018 296.299 289.68 294.77 292.271 293.125C292.271 293.125 293.153 292.528 294.875 291.25C297.688 289.167 299.417 287.688 301.75 285.25C303.5 283.444 304.959 281.347 306.125 278.958C307.75 275.563 309.375 269.083 310.042 263.687C310.542 259.562 310.396 257.313 310.334 255.917C310.25 253.688 308.396 251.375 306.375 250.396L294.25 244.958C294.25 244.958 276.125 237.063 265.042 232.021C263.882 231.516 262.639 231.226 261.375 231.167C259.95 231.018 258.509 231.177 257.15 231.633C255.791 232.09 254.547 232.833 253.5 233.812C253.396 233.771 252 234.958 236.938 253.208C236.073 254.37 234.882 255.248 233.517 255.73C232.152 256.213 230.674 256.278 229.271 255.917C227.913 255.555 226.584 255.095 225.292 254.542C222.709 253.458 221.813 253.042 220.042 252.292C208.081 247.081 197.01 240.031 187.229 231.396C184.604 229.104 182.167 226.604 179.667 224.188C171.471 216.338 164.328 207.458 158.417 197.771L157.188 195.792C156.318 194.454 155.605 193.021 155.063 191.521C154.271 188.458 156.334 186 156.334 186C156.334 186 161.396 180.458 163.75 177.458C166.042 174.542 167.979 171.708 169.229 169.688C171.688 165.729 172.459 161.667 171.167 158.521C165.334 144.271 159.306 130.097 153.084 116C151.854 113.208 148.209 111.208 144.896 110.812C143.771 110.674 142.646 110.563 141.521 110.479C138.724 110.319 135.919 110.347 133.125 110.563L137.334 110.417Z" fill="black"/>
</svg>
